<?xml version="1.0" standalone="no"?>
<!DOCTYPE svg PUBLIC "-//W3C//DTD SVG 20010904//EN"
 "http://www.w3.org/TR/2001/REC-SVG-20010904/DTD/svg10.dtd">
<svg version="1.0" xmlns="http://www.w3.org/2000/svg"
 width="4179.000000pt" height="4179.000000pt" viewBox="0 0 4179.000000 4179.000000"
 preserveAspectRatio="xMidYMid meet">
<g transform="translate(0.000000,4179.000000) scale(0.100000,-0.100000)"
fill="#000000" stroke="none">
<path d="M16295 40432 c-7 -18 -7 -18 15 -19 11 -1 20 3 20 8 0 6 5 7 10 4 6
-3 10 0 10 8 0 19 -48 17 -55 -1z"/>
<path d="M16393 40438 c-19 -31 -60 -42 -154 -44 -53 -1 -101 -4 -105 -6 -8
-5 -60 -8 -156 -11 -21 -1 -38 -5 -38 -8 0 -4 -15 -7 -32 -8 -18 0 -44 -3 -58
-6 -14 -3 -45 -10 -70 -15 -25 -5 -56 -12 -70 -15 -32 -8 -60 -14 -85 -17 -11
-2 -22 -5 -25 -8 -4 -5 -69 -27 -102 -36 -5 -1 -11 -3 -15 -4 -5 -1 -11 -2
-16 -1 -4 1 -26 -8 -48 -19 -22 -12 -44 -18 -49 -15 -6 3 -10 2 -10 -3 0 -8
-47 -23 -66 -21 -4 0 -10 -4 -13 -9 -3 -5 -35 -24 -71 -42 -97 -48 -141 -73
-194 -108 -26 -18 -51 -32 -57 -32 -5 0 -9 -5 -9 -10 0 -6 -8 -14 -17 -17 -9
-4 -24 -14 -33 -22 -9 -9 -28 -25 -44 -36 -34 -24 -221 -207 -221 -217 0 -3
-11 -16 -24 -27 -13 -12 -21 -21 -17 -21 4 0 -3 -10 -14 -22 -12 -13 -28 -35
-36 -50 -8 -16 -19 -28 -25 -28 -6 0 -8 -4 -4 -9 3 -5 0 -13 -6 -16 -6 -4 -24
-36 -40 -71 -16 -35 -34 -66 -39 -69 -6 -4 -8 -10 -5 -15 3 -5 1 -11 -5 -15
-6 -4 -8 -11 -5 -16 4 -5 1 -9 -4 -9 -6 0 -11 -5 -11 -11 0 -6 -6 -25 -13 -42
-22 -53 -49 -130 -54 -159 -3 -15 -8 -26 -12 -23 -4 2 -7 -6 -6 -18 1 -12 -2
-28 -7 -34 -6 -7 -8 -20 -4 -28 3 -8 1 -15 -3 -15 -9 0 -27 -76 -23 -92 1 -5
-2 -8 -7 -8 -5 0 -8 -8 -6 -17 1 -10 -2 -23 -7 -30 -5 -7 -7 -17 -3 -23 4 -6
2 -16 -3 -23 -5 -7 -10 -19 -10 -27 0 -8 -4 -28 -8 -45 -3 -16 -8 -39 -9 -50
-2 -11 -4 -21 -5 -22 -2 -2 -4 -7 -5 -13 -1 -5 -4 -12 -5 -15 -1 -3 -3 -14 -4
-24 0 -11 -4 -22 -8 -26 -4 -4 -4 -13 -1 -21 3 -8 0 -14 -7 -14 -7 0 -9 -8 -5
-19 3 -11 1 -22 -4 -25 -6 -4 -8 -13 -4 -21 3 -8 1 -15 -4 -15 -5 0 -9 -8 -10
-17 -3 -39 -15 -88 -23 -91 -4 -2 -6 -12 -3 -22 3 -12 0 -20 -6 -20 -7 0 -10
-4 -6 -9 3 -5 1 -13 -5 -16 -8 -5 -7 -12 2 -23 10 -12 10 -14 1 -8 -9 5 -13
-1 -13 -18 0 -14 -5 -26 -11 -26 -5 0 -7 -5 -4 -11 4 -5 -1 -20 -12 -31 -12
-15 -13 -19 -3 -13 12 6 13 5 3 -6 -7 -7 -13 -23 -13 -36 0 -13 -5 -23 -11
-23 -5 0 -8 -4 -4 -9 3 -5 0 -15 -7 -23 -7 -7 -14 -20 -15 -28 -2 -21 -22 -77
-45 -126 -11 -22 -20 -47 -21 -55 -2 -8 -7 -21 -12 -29 -13 -20 -95 -200 -102
-222 -3 -10 -9 -18 -14 -18 -5 0 -9 -7 -9 -15 0 -8 -9 -24 -20 -35 -11 -11
-18 -20 -15 -20 3 0 -5 -19 -17 -42 -12 -24 -22 -47 -23 -51 0 -4 -4 -11 -10
-15 -5 -4 -21 -27 -34 -52 -13 -25 -34 -63 -46 -85 -12 -22 -31 -56 -41 -75
-11 -19 -25 -41 -32 -49 -13 -14 -37 -66 -30 -66 2 0 -6 -11 -18 -23 -12 -12
-33 -47 -49 -77 -15 -30 -32 -55 -37 -55 -5 0 -6 -4 -3 -10 3 -5 1 -10 -5 -10
-6 0 -8 -4 -5 -10 3 -5 1 -10 -5 -10 -6 0 -9 -4 -6 -8 3 -5 -5 -19 -17 -33
-12 -13 -23 -32 -25 -42 -2 -10 -13 -32 -25 -50 -12 -18 -31 -51 -41 -74 -10
-24 -23 -40 -29 -36 -6 4 -8 0 -4 -9 3 -9 -4 -26 -16 -39 -12 -13 -21 -24 -19
-24 5 0 -11 -39 -18 -45 -3 -3 -17 -27 -31 -53 -45 -90 -52 -102 -63 -109 -6
-4 -8 -8 -4 -8 3 0 -10 -30 -29 -67 -20 -38 -43 -83 -52 -100 -8 -18 -19 -33
-23 -33 -4 0 -8 -6 -8 -12 0 -16 -72 -162 -82 -166 -5 -2 -8 -10 -8 -18 0 -17
-41 -97 -53 -102 -4 -2 -5 -7 -2 -12 3 -5 -2 -15 -10 -24 -9 -8 -16 -18 -15
-21 0 -7 -43 -99 -49 -105 -3 -3 -7 -12 -9 -20 -2 -8 -19 -45 -37 -81 -19 -37
-31 -70 -28 -73 4 -3 2 -6 -4 -6 -6 0 -19 -22 -29 -49 -10 -29 -22 -47 -28
-44 -6 3 -8 3 -4 -1 6 -7 -38 -124 -52 -136 -3 -3 -6 -11 -8 -19 -2 -8 -9 -29
-17 -48 -8 -18 -15 -37 -15 -41 -1 -4 -8 -14 -16 -23 -8 -9 -14 -20 -12 -25 1
-5 -4 -20 -11 -34 -15 -27 -61 -77 -61 -66 0 3 -9 -3 -20 -14 -11 -11 -27 -20
-35 -20 -8 0 -15 -5 -15 -12 0 -6 -3 -8 -7 -5 -7 7 -63 -41 -63 -54 0 -3 -8
-24 -17 -45 -9 -22 -18 -42 -19 -46 -1 -5 -3 -11 -4 -15 -1 -5 -2 -11 -1 -15
0 -5 -4 -8 -10 -8 -5 0 -8 -4 -4 -9 3 -5 -6 -51 -19 -103 -13 -51 -22 -96 -19
-100 2 -5 0 -8 -4 -8 -5 0 -10 -8 -11 -17 -2 -25 -8 -45 -17 -65 -4 -10 -8
-29 -9 -43 0 -14 -4 -25 -7 -25 -4 0 -12 -24 -18 -52 -15 -70 -15 -71 -24 -85
-5 -7 -6 -17 -2 -22 3 -6 -3 -14 -12 -20 -11 -6 -13 -11 -5 -11 9 0 10 -5 3
-19 -6 -10 -7 -21 -4 -25 3 -3 1 -6 -6 -6 -7 0 -11 -7 -8 -15 4 -8 2 -17 -4
-21 -6 -3 -8 -12 -5 -20 3 -8 1 -14 -4 -14 -6 0 -9 -3 -9 -7 1 -5 0 -10 -1
-13 -1 -3 -3 -13 -5 -23 -2 -10 -7 -26 -11 -35 -4 -9 -8 -23 -10 -30 -1 -8 -6
-21 -10 -30 -4 -9 -9 -26 -11 -36 -2 -11 -8 -25 -14 -32 -6 -7 -8 -18 -4 -24
3 -5 1 -10 -4 -10 -6 0 -11 -9 -11 -20 0 -11 -5 -20 -11 -20 -5 0 -7 -5 -4
-10 4 -6 1 -18 -7 -27 -7 -9 -12 -19 -12 -22 2 -9 -6 -31 -32 -89 -13 -29 -24
-56 -24 -60 0 -14 -25 -62 -32 -62 -4 0 -5 -7 -2 -15 4 -8 1 -15 -5 -15 -6 0
-10 -3 -10 -7 1 -5 0 -10 -1 -13 -1 -3 -3 -14 -5 -25 -2 -11 -9 -21 -14 -23
-6 -2 -11 -12 -11 -23 0 -10 -4 -19 -10 -19 -5 0 -10 -6 -10 -14 0 -13 -72
-160 -89 -180 -5 -6 -9 -14 -8 -18 1 -4 -5 -16 -13 -26 -8 -10 -16 -25 -18
-33 -2 -8 -9 -21 -17 -29 -7 -8 -22 -34 -34 -57 -12 -24 -27 -43 -33 -43 -6 0
-9 -3 -5 -6 5 -5 -49 -94 -85 -139 -4 -5 -36 -48 -69 -95 -65 -90 -121 -150
-139 -150 -5 0 -19 -9 -31 -21 -11 -11 -27 -18 -35 -15 -8 3 -14 2 -14 -2 0
-4 -29 -19 -65 -32 -36 -13 -65 -28 -65 -33 0 -4 -4 -6 -9 -3 -5 4 -22 1 -38
-6 -15 -6 -31 -10 -36 -10 -4 1 -23 -4 -43 -13 -19 -8 -32 -10 -29 -5 3 6 -1
7 -9 4 -9 -3 -16 -11 -16 -16 0 -6 -6 -5 -15 2 -8 7 -15 8 -15 3 0 -9 -106
-39 -122 -35 -5 1 -8 -1 -8 -5 0 -5 -15 -9 -33 -9 -17 -1 -43 -4 -57 -8 -57
-13 -86 -19 -110 -22 -13 -1 -26 -7 -28 -13 -2 -6 -12 -7 -26 -1 -13 5 -27 5
-32 0 -5 -5 -27 -11 -49 -14 -22 -3 -71 -13 -110 -21 -38 -9 -75 -13 -82 -11
-7 3 -13 -2 -13 -11 0 -13 -3 -14 -11 -6 -8 8 -20 8 -36 2 -14 -5 -28 -7 -33
-4 -5 3 -11 1 -14 -4 -4 -5 -17 -8 -31 -6 -14 1 -25 -2 -25 -7 0 -6 -7 -8 -15
-5 -8 4 -17 2 -20 -3 -3 -5 -13 -9 -23 -8 -9 0 -39 -5 -67 -12 -27 -6 -60 -12
-72 -13 -13 0 -23 -4 -23 -8 0 -4 -8 -6 -17 -4 -10 1 -23 -2 -30 -7 -7 -5 -17
-7 -22 -4 -5 4 -12 2 -16 -4 -4 -6 -11 -8 -16 -4 -5 3 -15 1 -22 -4 -7 -5 -19
-10 -27 -10 -23 -1 -73 -12 -100 -22 -28 -10 -114 -33 -118 -31 -1 1 -15 -5
-31 -13 -16 -9 -31 -12 -34 -9 -4 3 -13 0 -22 -7 -8 -7 -15 -10 -15 -6 0 3
-16 0 -35 -8 -19 -8 -35 -13 -35 -10 0 3 -10 -1 -22 -8 -13 -7 -25 -13 -28
-13 -46 -7 -92 -20 -120 -32 -19 -9 -46 -18 -60 -20 -13 -2 -27 -7 -30 -11 -5
-7 -20 -10 -67 -15 -13 -1 -23 -5 -23 -8 0 -6 -76 -33 -95 -34 -5 0 -12 -3
-15 -6 -4 -5 -147 -57 -175 -63 -5 -2 -32 -13 -58 -24 -27 -12 -55 -22 -62
-22 -8 0 -17 -5 -20 -10 -4 -6 -11 -8 -16 -5 -5 4 -9 1 -9 -5 0 -6 -6 -10 -12
-9 -7 1 -35 -7 -61 -19 -27 -12 -54 -22 -61 -22 -7 0 -16 -3 -20 -7 -3 -4 -16
-8 -27 -10 -11 -2 -27 -10 -35 -18 -9 -8 -26 -15 -40 -15 -13 0 -24 -5 -24
-12 0 -6 -3 -8 -7 -5 -3 4 -12 2 -20 -4 -7 -6 -13 -9 -13 -5 0 3 -21 -6 -46
-20 -25 -14 -48 -23 -51 -20 -3 3 -18 -3 -32 -12 -14 -10 -45 -24 -68 -32 -24
-7 -43 -16 -43 -20 0 -8 -39 -23 -52 -21 -5 1 -8 -4 -8 -10 0 -5 -4 -7 -10 -4
-5 3 -10 1 -10 -5 0 -6 -4 -9 -9 -5 -5 3 -12 1 -16 -5 -4 -6 -10 -8 -15 -5 -5
3 -11 1 -15 -5 -7 -11 -88 -50 -104 -50 -6 0 -11 -4 -11 -8 0 -8 -60 -36 -72
-33 -5 0 -8 -3 -8 -8 0 -9 -79 -46 -92 -43 -5 1 -8 -3 -8 -9 0 -5 -4 -8 -9 -5
-5 4 -11 3 -13 -1 -1 -5 -21 -17 -43 -28 -22 -11 -42 -22 -45 -25 -3 -3 -14
-10 -25 -16 -111 -60 -142 -78 -155 -88 -8 -7 -27 -18 -42 -26 -16 -7 -28 -17
-28 -22 0 -5 -4 -7 -8 -4 -5 3 -18 -4 -30 -14 -12 -11 -24 -20 -27 -20 -10 0
-100 -63 -103 -72 -2 -4 -9 -8 -15 -8 -10 0 -30 -14 -84 -60 -7 -6 -13 -7 -13
-3 -1 4 -8 -1 -18 -12 -9 -11 -36 -33 -60 -48 -24 -15 -51 -37 -60 -47 -9 -11
-21 -20 -27 -20 -6 0 -18 -8 -26 -17 -9 -10 -38 -36 -64 -58 -57 -48 -175
-162 -175 -171 0 -3 -12 -18 -27 -33 -16 -15 -37 -40 -48 -56 -11 -15 -28 -35
-37 -44 -10 -8 -18 -20 -18 -27 0 -6 -9 -19 -20 -29 -11 -10 -20 -24 -20 -30
0 -7 -7 -18 -15 -25 -15 -13 -69 -120 -67 -132 1 -5 -2 -8 -7 -8 -9 0 -26 -48
-23 -62 1 -5 -3 -8 -9 -8 -5 0 -7 -4 -4 -10 3 -5 1 -10 -5 -10 -7 0 -10 -6 -7
-14 3 -7 -1 -25 -8 -40 -8 -14 -12 -26 -10 -26 2 0 -1 -15 -7 -32 -5 -18 -10
-43 -9 -55 0 -12 -3 -24 -7 -27 -7 -4 -6 -250 2 -296 2 -14 8 -36 14 -50 5
-14 8 -33 7 -42 -2 -10 1 -18 6 -18 5 0 9 -11 9 -25 0 -15 7 -39 15 -54 8 -16
11 -31 8 -35 -4 -3 -1 -6 6 -6 7 0 10 -4 6 -9 -3 -5 -1 -12 5 -16 6 -4 8 -11
5 -16 -4 -5 -1 -9 4 -9 6 0 11 -9 11 -20 0 -11 5 -20 10 -20 6 0 10 -6 10 -14
0 -7 8 -24 19 -37 10 -13 18 -26 18 -29 0 -3 8 -18 18 -35 42 -69 49 -80 47
-83 -2 -1 3 -9 10 -17 29 -32 38 -45 38 -52 0 -5 12 -22 28 -39 15 -17 33 -41
40 -55 7 -14 29 -42 48 -63 19 -20 34 -40 34 -43 0 -3 16 -21 35 -40 19 -19
32 -39 29 -44 -3 -5 -1 -9 5 -9 13 0 61 -48 61 -60 0 -6 6 -10 14 -10 8 0 20
-13 28 -30 7 -16 16 -30 20 -30 5 0 34 -27 65 -60 32 -33 64 -60 70 -60 7 0
13 -7 13 -15 0 -8 4 -15 9 -15 5 0 37 -27 72 -60 84 -78 86 -81 139 -121 25
-19 49 -39 55 -45 5 -6 28 -24 50 -40 22 -16 54 -41 70 -56 17 -16 33 -28 37
-28 4 0 13 -6 20 -13 22 -22 151 -119 165 -124 7 -3 10 -10 6 -16 -3 -5 -2 -7
4 -4 5 3 20 -4 34 -16 13 -13 48 -38 76 -57 29 -18 53 -37 53 -42 0 -5 4 -7 8
-4 5 3 20 -6 35 -20 14 -13 31 -24 37 -24 5 0 10 -4 10 -10 0 -5 7 -10 15 -10
8 0 15 -3 15 -8 0 -4 13 -13 28 -20 16 -6 37 -20 48 -30 10 -9 31 -23 46 -31
15 -8 36 -21 45 -30 10 -9 30 -22 46 -30 15 -8 27 -18 27 -23 0 -4 5 -8 10 -8
12 0 73 -41 78 -53 2 -4 8 -5 13 -1 5 3 12 -2 15 -10 3 -9 11 -16 18 -16 6 0
29 -14 50 -30 22 -17 43 -30 48 -30 5 0 18 -9 30 -20 12 -11 28 -20 35 -20 7
0 13 -4 13 -8 0 -5 17 -17 37 -28 21 -10 46 -27 57 -36 11 -10 26 -18 33 -18
7 0 13 -5 13 -11 0 -5 5 -7 10 -4 6 3 10 1 10 -4 0 -6 5 -11 10 -11 12 0 73
-41 78 -52 2 -5 12 -8 23 -8 10 0 19 -4 19 -10 0 -5 6 -10 14 -10 8 0 16 -4
18 -8 2 -4 32 -23 68 -41 36 -19 67 -37 70 -40 3 -4 37 -22 75 -41 39 -18 78
-41 89 -49 10 -9 20 -15 22 -13 7 5 119 -50 126 -61 4 -7 8 -8 8 -4 0 5 12 1
28 -7 35 -20 196 -93 280 -127 17 -8 32 -17 32 -21 0 -5 3 -7 8 -7 4 1 10 0
15 -1 4 -1 10 -3 15 -4 4 -1 16 -7 27 -13 11 -6 22 -11 25 -11 5 -1 55 -18 80
-29 8 -3 18 -5 23 -5 4 1 7 -3 7 -8 0 -6 9 -10 19 -10 11 0 23 -5 26 -10 4 -6
10 -8 15 -5 5 3 15 -2 24 -10 8 -9 17 -15 18 -15 2 1 16 -3 31 -9 16 -6 33
-11 38 -11 5 0 9 -5 9 -11 0 -5 4 -7 10 -4 5 3 20 -1 32 -9 12 -9 30 -16 40
-16 10 0 18 -4 18 -8 0 -5 6 -9 13 -9 6 0 41 -14 77 -30 36 -17 103 -46 150
-64 47 -18 95 -39 107 -47 12 -7 26 -14 30 -14 4 1 31 -11 58 -25 28 -13 51
-24 52 -24 2 0 29 -11 60 -25 32 -14 81 -35 108 -47 28 -11 53 -26 57 -31 4
-6 8 -7 8 -3 0 5 13 -1 29 -12 16 -12 36 -21 45 -21 9 0 16 -4 16 -10 0 -5 3
-9 8 -9 4 1 9 0 12 -1 3 -1 12 -3 21 -5 9 -1 32 -10 50 -18 71 -32 171 -59
210 -58 32 1 90 -36 106 -69 15 -30 11 -128 -12 -275 -3 -22 -6 -48 -6 -58 0
-10 -4 -30 -10 -43 -6 -18 -6 -23 2 -18 8 4 8 0 0 -15 -7 -11 -10 -21 -7 -21
2 0 0 -16 -4 -35 -5 -21 -4 -38 2 -41 7 -4 7 -9 0 -13 -6 -4 -14 -47 -18 -96
-4 -50 -9 -92 -13 -95 -10 -8 -10 -40 1 -40 5 0 6 -5 2 -12 -8 -13 -13 -60
-15 -146 -1 -29 -5 -55 -9 -57 -4 -3 -4 -20 0 -39 4 -19 4 -38 0 -43 -9 -9
-22 -128 -19 -165 1 -7 -2 -38 -6 -68 -4 -30 -7 -76 -6 -102 1 -26 -3 -49 -8
-52 -4 -3 -5 -24 -1 -46 4 -25 4 -40 -3 -40 -6 0 -5 -5 2 -13 7 -10 7 -17 0
-24 -6 -6 -9 -36 -7 -67 1 -31 0 -56 -4 -56 -6 0 -9 -33 -12 -135 0 -25 -5
-45 -9 -45 -4 0 -7 -6 -6 -12 4 -33 -2 -99 -8 -95 -5 3 -7 -29 -7 -71 1 -43
-3 -85 -7 -94 -5 -10 -5 -19 0 -22 7 -5 8 -41 1 -41 -3 0 -9 -56 -15 -125 -2
-30 -4 -55 -5 -55 -4 0 -13 -72 -26 -200 -6 -70 -13 -124 -19 -165 -3 -19 -8
-53 -10 -74 -2 -22 -7 -46 -10 -54 -3 -8 0 -22 7 -30 11 -13 11 -14 -1 -7 -11
6 -13 4 -8 -8 3 -10 2 -17 -3 -17 -5 0 -8 -12 -8 -27 1 -46 -1 -55 -13 -47 -8
4 -8 1 -1 -12 5 -11 8 -30 6 -44 -11 -79 -15 -120 -16 -162 -1 -27 -5 -48 -9
-48 -4 0 -6 -36 -4 -80 1 -44 -1 -80 -5 -80 -3 0 -6 -52 -5 -115 1 -63 -2
-115 -6 -115 -4 0 -5 -10 -1 -22 4 -16 2 -19 -8 -13 -10 6 -11 4 -4 -6 10 -17
14 -98 5 -103 -4 -3 -6 -30 -5 -60 1 -37 -2 -56 -10 -56 -6 0 -4 -5 4 -10 8
-5 10 -10 4 -10 -6 0 -11 -15 -12 -32 0 -18 -2 -55 -6 -83 -3 -27 -8 -66 -10
-85 -2 -19 -4 -37 -6 -40 -1 -3 -2 -9 -1 -14 1 -4 -4 -15 -11 -24 -11 -13 -11
-14 1 -8 10 6 12 4 8 -10 -3 -11 -9 -37 -13 -59 -4 -22 -9 -49 -11 -60 -2 -11
-3 -30 -3 -42 0 -13 -5 -23 -10 -23 -6 0 -6 -9 0 -24 6 -18 5 -28 -5 -36 -8
-7 -12 -16 -9 -21 3 -5 2 -14 -2 -20 -3 -6 -8 -32 -10 -57 -2 -25 -7 -48 -11
-51 -5 -3 -9 -17 -9 -31 -2 -28 -42 -236 -51 -260 -3 -8 -7 -30 -9 -48 -2 -18
-6 -38 -10 -44 -4 -7 -9 -28 -11 -47 -5 -65 -27 -161 -35 -161 -5 0 -4 -9 2
-19 7 -14 7 -22 -1 -26 -5 -4 -9 -17 -8 -28 0 -12 0 -24 -1 -27 -3 -6 -8 -34
-14 -75 -2 -16 -7 -38 -11 -49 -5 -10 -8 -31 -9 -47 -1 -16 -4 -29 -8 -29 -3
0 -5 -11 -3 -25 1 -14 -1 -28 -6 -30 -4 -3 -8 -13 -8 -23 -1 -31 -7 -61 -14
-68 -4 -4 -7 -18 -7 -31 0 -12 -6 -23 -12 -23 -9 0 -9 -3 1 -9 12 -8 12 -12 2
-25 -8 -9 -11 -16 -7 -16 3 0 1 -11 -4 -26 -11 -28 -22 -80 -24 -106 0 -10 -3
-18 -7 -18 -4 0 -6 -8 -4 -17 1 -10 -4 -28 -11 -40 -8 -13 -12 -23 -9 -23 3 0
-1 -15 -9 -34 -8 -19 -12 -37 -9 -39 2 -3 -3 -19 -11 -36 -9 -17 -16 -33 -15
-36 2 -11 -46 -150 -53 -153 -5 -2 -8 -15 -8 -28 0 -17 -4 -23 -12 -18 -6 4
-8 3 -5 -3 3 -5 0 -21 -8 -36 -10 -19 -10 -27 -2 -31 8 -3 8 -5 -1 -5 -7 -1
-10 -6 -7 -11 3 -6 2 -10 -3 -10 -5 0 -15 -18 -22 -40 -7 -21 -16 -37 -20 -35
-4 3 -7 -1 -7 -8 2 -18 -36 -117 -45 -117 -5 0 -8 -7 -8 -15 0 -16 -27 -76
-39 -85 -3 -3 -6 -9 -7 -15 -1 -16 -46 -110 -55 -113 -4 -2 -6 -9 -3 -16 3 -7
-2 -19 -11 -26 -8 -7 -15 -19 -15 -26 0 -8 -5 -14 -11 -14 -5 0 -8 -4 -4 -9 3
-5 -2 -16 -10 -25 -9 -8 -16 -17 -16 -18 1 -14 -13 -48 -19 -48 -4 0 -11 -11
-14 -24 -3 -14 -12 -31 -19 -38 -6 -7 -23 -36 -37 -63 -14 -28 -28 -54 -33
-60 -22 -29 -57 -87 -57 -95 0 -6 -5 -10 -11 -10 -5 0 -8 -4 -5 -9 3 -5 -1
-11 -9 -15 -8 -3 -15 -12 -15 -20 0 -8 -4 -16 -8 -18 -4 -1 -33 -37 -64 -78
-32 -41 -68 -88 -82 -105 -69 -81 -92 -107 -104 -118 -14 -13 -18 -17 -69 -72
-17 -18 -34 -31 -37 -28 -3 4 -6 2 -6 -4 0 -11 -67 -83 -77 -83 -3 0 -19 -14
-35 -30 -15 -17 -35 -30 -43 -30 -8 0 -15 -6 -15 -14 0 -8 -10 -18 -22 -22
-13 -4 -25 -10 -28 -14 -6 -9 -94 -54 -99 -51 -2 2 -7 -2 -10 -8 -4 -6 -16
-12 -26 -14 -11 -1 -26 -6 -32 -10 -7 -4 -30 -9 -51 -11 -21 -1 -43 -5 -48 -8
-5 -3 -20 -4 -34 -2 -14 2 -42 4 -62 4 -21 1 -40 5 -43 9 -2 5 -18 7 -34 5
-17 -2 -33 0 -36 5 -3 5 -14 7 -25 4 -11 -3 -20 -1 -20 5 0 5 -11 10 -24 10
-24 0 -126 31 -136 42 -3 3 -14 7 -25 8 -11 2 -22 7 -25 10 -3 4 -14 8 -25 10
-11 2 -33 12 -50 23 -16 10 -42 24 -57 30 -16 6 -28 15 -28 20 0 5 -7 9 -15 9
-8 0 -15 5 -15 10 0 6 -7 10 -15 10 -8 0 -15 5 -15 10 0 6 -4 10 -10 10 -5 0
-19 8 -31 17 -38 31 -169 161 -169 168 0 4 -6 12 -12 19 -13 13 -17 19 -60 86
-25 38 -46 81 -44 91 0 3 -5 13 -13 22 -7 10 -10 17 -6 17 4 0 1 7 -6 16 -7 9
-15 28 -17 42 -2 15 -6 29 -10 32 -7 5 -13 23 -17 55 -1 11 -3 20 -5 20 -5 0
-21 134 -21 175 0 23 6 86 14 150 2 14 6 30 9 35 6 11 3 64 -6 105 -7 30 -39
75 -54 75 -6 0 -14 3 -17 7 -4 4 -22 1 -40 -7 -19 -7 -36 -11 -39 -7 -3 3 -6
1 -6 -5 0 -6 -15 -18 -32 -27 -58 -29 -71 -39 -171 -138 -54 -54 -95 -102 -92
-108 3 -5 2 -10 -2 -10 -11 0 -46 -65 -50 -93 -2 -12 -8 -24 -14 -28 -6 -3 -9
-8 -8 -10 5 -6 -23 -123 -32 -133 -4 -5 -3 -19 1 -32 6 -15 6 -24 0 -24 -5 0
-7 -6 -4 -14 3 -8 1 -16 -3 -19 -5 -3 -5 -47 0 -99 4 -51 7 -112 5 -135 -2
-24 1 -43 7 -43 5 0 4 -4 -4 -9 -8 -5 -9 -10 -3 -12 6 -2 12 -31 15 -64 2 -33
7 -67 10 -75 9 -24 32 -183 30 -202 -2 -10 1 -18 5 -18 4 0 9 -10 9 -22 1 -13
8 -49 16 -81 8 -31 12 -57 9 -57 -2 0 1 -7 8 -15 6 -8 9 -19 6 -24 -4 -5 -2
-12 3 -15 5 -4 8 -14 7 -24 -2 -9 1 -20 6 -23 5 -3 10 -20 11 -37 1 -18 5 -32
8 -32 4 0 10 -12 14 -27 5 -16 10 -35 12 -43 3 -8 4 -23 4 -32 0 -10 5 -18 10
-18 6 0 8 -4 4 -9 -3 -5 -1 -12 4 -15 5 -4 12 -24 16 -46 4 -22 12 -40 18 -40
5 0 7 -3 4 -6 -4 -4 0 -19 7 -33 7 -14 44 -87 81 -161 37 -74 70 -137 74 -140
4 -3 20 -26 36 -52 17 -27 33 -48 38 -48 4 0 7 -5 7 -11 0 -15 36 -60 43 -53
3 3 8 -4 12 -16 8 -26 203 -220 222 -220 4 0 21 -14 37 -30 16 -17 33 -30 38
-30 4 0 17 -8 27 -17 37 -33 50 -43 61 -43 5 0 10 -4 10 -10 0 -5 9 -10 20
-10 11 0 20 -4 20 -10 0 -5 7 -10 15 -10 8 0 15 -4 15 -8 0 -4 51 -32 113 -62
61 -30 114 -58 115 -62 2 -5 11 -8 21 -8 9 0 25 -6 36 -13 11 -7 43 -22 70
-32 28 -10 55 -21 60 -25 6 -3 30 -13 55 -20 25 -7 50 -17 55 -20 12 -9 67
-24 78 -22 4 1 7 -3 7 -9 0 -5 4 -8 9 -5 5 3 25 -1 44 -9 19 -8 50 -17 68 -20
18 -3 39 -10 45 -16 7 -5 16 -9 20 -8 5 1 11 0 14 -1 13 -5 47 -11 68 -12 12
0 25 -4 28 -9 2 -4 11 -6 19 -2 8 3 15 1 15 -5 0 -5 10 -10 23 -10 26 -1 92
-9 92 -12 0 -2 32 -9 80 -16 22 -3 51 -7 65 -10 27 -4 78 -11 155 -19 56 -6
498 -7 560 -1 22 2 47 6 55 10 8 3 40 7 70 10 30 2 55 5 55 6 0 2 9 4 20 6 65
10 80 13 80 14 0 1 8 3 18 6 9 2 25 6 35 8 9 3 17 5 17 6 0 2 36 10 58 12 9 1
17 6 17 10 0 4 3 7 8 6 13 -3 77 14 90 24 6 6 12 7 12 3 0 -4 6 -2 13 4 8 6
17 8 20 4 4 -3 7 -1 7 5 0 6 6 9 14 6 8 -3 17 0 21 5 3 6 11 9 16 6 5 -4 9 -1
9 5 0 7 6 10 12 8 7 -3 21 4 32 13 10 10 23 16 27 13 4 -2 10 0 14 6 4 6 11 8
16 5 5 -4 9 -1 9 4 0 6 7 11 16 11 8 0 35 14 60 30 24 17 44 27 44 23 0 -4 4
-3 8 2 4 6 43 37 87 70 71 52 165 140 203 189 7 9 18 14 23 10 5 -3 17 0 26 8
13 10 17 10 20 0 3 -6 10 -9 15 -6 7 4 8 2 4 -4 -4 -7 -3 -12 2 -12 12 0 32
-79 22 -85 -11 -7 -18 -65 -8 -71 4 -3 4 -13 -1 -22 -5 -9 -9 -28 -9 -42 0
-30 -21 -136 -35 -170 -3 -8 -8 -32 -12 -52 -3 -21 -11 -38 -18 -38 -8 0 -8
-3 2 -9 8 -5 9 -11 3 -15 -6 -3 -11 -14 -11 -24 -2 -45 -6 -62 -13 -62 -4 0
-8 -8 -8 -18 0 -10 -6 -24 -12 -31 -11 -11 -10 -12 2 -6 13 8 13 7 1 -8 -7 -9
-10 -17 -6 -17 4 0 2 -7 -5 -15 -7 -8 -9 -15 -5 -15 4 0 3 -6 -2 -13 -6 -6
-16 -30 -23 -52 -7 -22 -17 -46 -23 -52 -5 -7 -7 -13 -4 -13 4 0 -7 -29 -23
-64 -15 -35 -26 -67 -23 -70 4 -3 1 -6 -6 -6 -7 0 -9 -4 -6 -10 3 -5 2 -10 -4
-10 -6 0 -15 -17 -21 -39 -5 -21 -17 -44 -25 -51 -8 -7 -13 -16 -10 -20 3 -4
-2 -13 -10 -20 -8 -7 -13 -16 -10 -20 3 -5 0 -15 -7 -22 -20 -21 -38 -56 -38
-73 0 -8 -4 -15 -8 -15 -9 0 -43 -66 -39 -76 1 -3 -6 -10 -15 -15 -10 -6 -18
-17 -18 -24 0 -8 -4 -15 -10 -15 -5 0 -10 -6 -10 -14 0 -8 -7 -22 -16 -30 -8
-9 -13 -16 -10 -16 3 0 -6 -12 -19 -26 -14 -15 -25 -33 -25 -40 0 -8 -4 -14
-10 -14 -5 0 -10 -5 -10 -10 0 -6 -5 -16 -10 -23 -37 -44 -130 -172 -130 -179
0 -4 -7 -8 -16 -8 -8 0 -13 -4 -10 -9 3 -5 -8 -24 -25 -42 -146 -163 -179
-198 -180 -191 0 4 -4 -3 -9 -16 -5 -12 -20 -27 -32 -32 -13 -5 -19 -9 -13 -9
9 -1 -41 -51 -68 -68 -6 -4 -31 -29 -54 -55 -24 -26 -43 -45 -43 -41 0 4 -8
-2 -19 -13 -24 -25 -65 -61 -121 -104 -25 -19 -46 -38 -48 -42 -2 -5 -8 -8
-13 -8 -6 0 -22 -11 -36 -24 -15 -14 -31 -22 -37 -19 -6 3 -8 3 -4 -2 7 -7
-181 -141 -257 -183 -16 -10 -32 -19 -35 -22 -3 -3 -18 -12 -35 -20 -16 -8
-32 -17 -35 -20 -4 -4 -29 -18 -115 -64 -11 -6 -23 -15 -27 -21 -4 -5 -8 -7
-8 -3 0 4 -29 -9 -65 -28 -36 -19 -65 -32 -65 -27 0 4 -4 4 -8 -2 -9 -13 -72
-48 -72 -41 0 3 -24 -7 -54 -23 -30 -17 -57 -27 -60 -24 -3 4 -6 1 -6 -5 0 -7
-6 -12 -13 -12 -7 0 -29 -9 -49 -19 -19 -11 -39 -17 -42 -14 -3 4 -6 1 -6 -6
0 -7 -4 -10 -9 -7 -5 3 -31 -5 -58 -18 -82 -42 -127 -60 -145 -58 -10 0 -18
-3 -18 -9 0 -5 -5 -9 -11 -9 -11 0 -67 -23 -102 -41 -10 -5 -23 -7 -30 -3 -7
4 -9 3 -4 -1 7 -9 -66 -41 -113 -50 -14 -2 -26 -9 -28 -15 -2 -5 -11 -10 -21
-10 -9 0 -26 -7 -38 -15 -12 -9 -26 -14 -30 -13 -4 1 -18 -3 -30 -10 -13 -7
-23 -9 -23 -5 0 4 -4 4 -8 -2 -11 -16 -82 -46 -93 -40 -5 4 -9 1 -9 -5 0 -6
-4 -9 -9 -6 -5 3 -14 -1 -21 -10 -7 -8 -19 -13 -27 -10 -7 3 -13 1 -13 -4 0
-6 -3 -9 -7 -8 -5 1 -45 -17 -90 -40 -46 -23 -85 -41 -87 -40 -2 2 -13 -6 -25
-16 -12 -11 -21 -16 -21 -12 0 3 -17 -5 -39 -18 -21 -14 -47 -26 -57 -28 -10
-2 -30 -14 -43 -28 -14 -14 -27 -24 -30 -23 -10 5 -45 -9 -59 -23 -7 -8 -21
-14 -29 -14 -9 0 -13 -3 -10 -6 4 -4 -11 -16 -33 -26 -22 -11 -40 -24 -40 -30
0 -5 -4 -7 -8 -4 -5 3 -18 -4 -30 -14 -12 -11 -25 -20 -29 -20 -4 0 -20 -10
-35 -23 -30 -25 -159 -116 -190 -133 -10 -6 -19 -15 -19 -20 1 -5 -2 -9 -6 -9
-12 0 -82 -55 -130 -102 -24 -23 -43 -40 -43 -37 0 3 -30 -24 -66 -60 -37 -36
-69 -66 -72 -66 -9 0 -142 -144 -142 -153 0 -5 -4 -5 -10 -2 -5 3 -10 1 -10
-5 0 -6 -14 -24 -30 -40 -17 -16 -30 -32 -30 -34 0 -12 -49 -53 -56 -47 -4 3
-4 1 -1 -5 4 -7 -5 -23 -20 -38 -14 -14 -23 -26 -21 -26 3 0 -12 -19 -33 -42
-22 -24 -39 -46 -39 -50 0 -4 -13 -21 -30 -39 -16 -18 -27 -36 -24 -41 3 -4 1
-8 -5 -8 -5 0 -20 -17 -32 -37 -13 -21 -26 -40 -29 -43 -11 -10 -76 -106 -114
-168 -20 -34 -45 -70 -54 -79 -9 -9 -16 -18 -15 -20 5 -6 -31 -73 -39 -73 -5
0 -6 -4 -3 -10 3 -5 1 -10 -4 -10 -6 0 -11 -5 -11 -11 0 -6 -9 -23 -20 -39
-11 -15 -17 -30 -13 -34 3 -3 0 -6 -7 -6 -7 0 -10 -3 -7 -7 4 -3 1 -13 -7 -22
-8 -9 -16 -20 -18 -26 -2 -5 -7 -8 -13 -7 -5 2 -7 0 -3 -3 4 -4 -3 -26 -14
-49 -12 -22 -23 -47 -24 -54 -1 -8 -10 -22 -20 -33 -9 -10 -13 -19 -9 -19 4 0
0 -9 -11 -21 -10 -12 -18 -23 -16 -25 6 -8 -31 -84 -41 -84 -4 0 -6 -4 -2 -9
3 -5 -7 -36 -22 -68 -15 -32 -27 -60 -28 -63 -5 -24 -18 -50 -26 -50 -6 0 -8
-4 -5 -9 4 -5 -3 -30 -14 -56 -11 -26 -18 -51 -15 -55 3 -5 0 -10 -6 -12 -7
-2 -13 -13 -14 -24 -1 -10 -6 -29 -13 -40 -6 -12 -8 -24 -5 -28 3 -3 1 -6 -5
-6 -7 0 -11 -3 -10 -7 2 -11 -31 -123 -44 -150 -6 -11 -7 -26 -4 -32 4 -6 2
-11 -5 -11 -7 0 -10 -3 -7 -6 4 -3 0 -21 -8 -40 -8 -19 -11 -34 -8 -34 4 0 1
-6 -5 -14 -6 -8 -11 -18 -10 -22 1 -5 0 -11 -1 -14 -1 -3 -3 -14 -5 -25 -5
-26 -13 -59 -15 -62 -2 -2 -3 -11 -4 -20 -1 -10 -6 -29 -10 -41 -9 -27 -16
-65 -18 -99 -1 -13 -5 -23 -8 -23 -3 0 -5 -13 -4 -30 1 -16 -1 -30 -5 -30 -4
0 -8 -10 -8 -22 -1 -13 -4 -41 -7 -63 -4 -22 -9 -64 -11 -93 -3 -29 -8 -58
-11 -64 -7 -12 -15 -92 -14 -141 0 -16 -3 -33 -6 -39 -7 -11 -14 -90 -16 -180
0 -27 -4 -48 -8 -48 -8 0 -6 -37 2 -46 4 -3 2 -18 -3 -33 -11 -29 -11 -28 3
-55 7 -13 7 -16 -1 -12 -11 7 -14 -40 -13 -161 1 -24 -2 -43 -6 -43 -4 0 -6
-64 -4 -142 1 -79 -1 -154 -4 -168 -6 -23 -7 -24 -14 -5 -4 11 -5 24 -2 30 10
17 11 56 1 49 -6 -3 -9 9 -7 31 1 20 6 39 10 41 4 3 8 11 8 17 -1 10 -22 -18
-26 -33 0 -3 -4 -13 -8 -23 -5 -9 -6 -26 -3 -37 3 -11 2 -20 -2 -20 -4 0 -7
-164 -7 -365 0 -201 3 -365 8 -365 4 0 4 -10 -1 -22 -9 -25 5 -78 21 -78 6 0
7 -8 3 -17 -5 -14 -4 -15 6 -6 10 10 9 16 -1 28 -14 17 -21 67 -8 59 14 -9 18
15 9 60 -7 40 -6 45 6 35 11 -9 14 -39 13 -128 -2 -209 10 -475 22 -482 6 -4
6 -9 1 -12 -11 -7 -11 -46 0 -64 5 -7 5 -13 0 -13 -4 0 -8 -16 -8 -35 0 -19 2
-35 5 -35 5 0 9 -84 13 -272 1 -43 4 -78 7 -78 3 0 6 -26 7 -57 3 -74 12 -208
14 -208 2 0 7 -90 11 -177 2 -38 5 -68 8 -68 5 0 11 -86 14 -197 0 -29 4 -53
8 -53 4 0 6 -22 6 -48 -1 -26 1 -52 4 -57 3 -6 5 -21 4 -35 -1 -14 2 -31 7
-37 6 -9 5 -13 -2 -13 -7 0 -9 -5 -5 -12 9 -14 15 -67 16 -146 1 -28 4 -52 8
-52 5 0 9 -40 13 -137 1 -24 5 -43 8 -43 3 0 6 -19 7 -42 1 -24 4 -61 7 -83 3
-22 8 -62 10 -90 9 -89 12 -120 14 -120 2 0 12 -84 14 -130 1 -16 6 -36 10
-42 5 -8 3 -13 -5 -13 -8 0 -9 -3 -3 -8 6 -4 11 -16 11 -27 3 -37 15 -130 21
-160 4 -16 7 -41 8 -55 1 -14 3 -27 5 -30 3 -7 9 -79 9 -114 0 -15 6 -35 12
-42 9 -11 8 -14 -2 -14 -10 0 -10 -3 -1 -12 7 -7 8 -17 1 -30 -6 -11 -6 -18 0
-18 5 0 11 -19 15 -42 3 -24 8 -61 11 -83 3 -22 8 -53 10 -70 2 -16 6 -50 9
-75 4 -25 8 -64 10 -88 2 -24 7 -46 10 -49 3 -4 6 -23 6 -44 0 -21 5 -41 10
-44 7 -4 7 -13 0 -24 -5 -11 -6 -21 0 -27 5 -5 11 -33 12 -62 2 -28 5 -52 8
-52 5 0 11 -52 14 -120 0 -19 4 -37 8 -40 3 -3 9 -25 12 -50 2 -25 5 -45 6
-45 1 0 4 -20 5 -45 2 -25 4 -45 6 -45 1 0 3 -13 4 -30 1 -16 6 -38 10 -47 4
-10 8 -42 9 -72 0 -30 4 -52 8 -49 5 2 9 -11 10 -29 0 -18 3 -46 5 -63 2 -16
5 -45 6 -63 1 -17 5 -32 10 -32 5 0 7 -13 5 -30 -2 -16 -1 -31 4 -32 4 -2 9
-29 10 -60 2 -32 6 -58 10 -58 4 0 6 -14 4 -30 -2 -17 1 -33 5 -36 5 -3 7 -16
5 -30 -3 -13 -1 -24 3 -24 4 0 8 -10 9 -22 3 -37 10 -93 12 -93 1 0 4 -16 6
-35 10 -75 12 -85 14 -85 2 0 4 -13 6 -30 3 -36 12 -90 14 -90 3 0 11 -59 12
-87 0 -16 4 -28 8 -28 4 0 8 -12 8 -28 0 -47 6 -82 15 -82 4 0 6 -4 3 -9 -5
-8 18 -156 24 -156 1 0 3 -13 3 -30 1 -16 5 -35 10 -42 4 -6 2 -15 -4 -19 -7
-4 -8 -9 -1 -13 5 -3 13 -26 16 -51 3 -25 9 -56 12 -70 7 -34 13 -65 18 -95 3
-13 7 -29 10 -34 4 -5 2 -13 -4 -16 -7 -4 -8 -11 -2 -18 6 -7 15 -46 21 -87 7
-41 15 -77 19 -80 4 -3 8 -23 9 -45 1 -22 10 -76 18 -120 9 -44 18 -91 19
-105 2 -14 6 -36 10 -50 6 -26 11 -52 26 -138 5 -30 12 -61 14 -70 7 -21 18
-89 20 -119 0 -13 4 -23 9 -23 4 0 5 -11 3 -24 -2 -14 -1 -26 4 -28 5 -2 11
-23 13 -48 2 -25 7 -52 10 -60 3 -8 9 -35 12 -60 7 -51 12 -83 16 -90 1 -3 3
-9 4 -15 1 -5 5 -26 9 -45 4 -19 8 -42 9 -50 2 -8 6 -20 10 -27 4 -6 4 -18 1
-27 -3 -9 -2 -16 4 -16 6 0 9 -8 8 -17 -2 -10 1 -31 5 -48 5 -16 10 -41 13
-55 3 -14 8 -36 11 -50 4 -14 6 -37 6 -52 0 -16 4 -28 9 -28 5 0 7 -6 4 -14
-3 -8 -1 -17 5 -20 6 -4 8 -13 4 -21 -3 -9 -1 -21 4 -28 5 -6 10 -25 11 -41 3
-37 25 -82 40 -78 7 1 12 -2 12 -7 0 -5 23 -8 50 -8 28 1 50 -2 50 -6 0 -4 8
-4 18 1 16 9 93 7 120 -3 6 -2 12 -1 12 3 0 4 41 7 90 7 50 0 90 -3 90 -6 0
-4 15 -4 33 0 17 3 55 6 82 4 83 -3 135 -3 253 0 61 1 112 -2 112 -6 0 -5 5
-5 11 -1 15 9 150 11 155 2 3 -4 11 -5 19 -2 23 9 126 10 132 2 2 -5 9 -5 15
-2 15 9 149 11 154 2 3 -4 12 -4 20 -1 20 8 353 10 348 2 -2 -3 14 -3 34 1 21
4 47 3 58 0 10 -4 23 -5 28 -2 8 4 458 6 481 2 6 -1 15 -1 20 0 25 6 313 2
324 -4 6 -4 11 -4 11 1 0 4 167 8 370 8 204 0 370 -3 370 -7 0 -4 10 -4 23 0
25 8 67 8 90 -1 8 -3 18 -3 21 0 3 3 56 5 118 4 62 0 131 -1 153 0 22 0 166 0
320 0 154 -1 298 -1 320 0 205 4 925 0 934 -5 6 -4 11 -4 11 1 0 9 187 9 196
0 3 -3 16 -2 28 2 19 6 114 7 141 1 6 -1 12 -2 15 -1 17 7 90 5 90 -2 0 -4 7
-4 17 1 11 7 39 3 87 -11 110 -32 289 -30 401 4 45 13 174 18 182 6 2 -4 9 -4
15 -1 10 6 768 10 793 4 6 -1 12 -2 15 0 3 1 57 1 120 1 63 -1 133 -1 155 0
22 0 166 0 320 0 154 -1 298 -1 320 0 22 0 149 1 282 1 202 1 254 -2 315 -18
40 -10 77 -21 81 -24 12 -10 110 11 129 27 17 15 108 20 128 8 6 -3 10 -3 10
2 0 7 183 9 200 3 3 -2 10 -1 15 0 27 6 122 5 141 -1 12 -4 24 -5 28 -2 9 9
256 9 256 0 0 -5 5 -5 11 -1 7 4 125 7 263 7 l251 -1 70 -35 c204 -103 353
-100 529 10 32 21 52 25 115 25 42 0 81 -1 86 -2 6 -1 12 -2 15 0 3 1 57 1
120 1 63 -1 133 -1 155 0 22 0 166 0 320 0 154 -1 298 -1 320 0 204 4 925 0
934 -5 6 -4 11 -4 11 1 0 9 187 9 196 0 3 -3 16 -2 28 2 23 7 104 6 151 -3 86
-16 141 -31 147 -41 5 -6 8 -6 8 0 0 6 20 10 44 10 29 0 52 7 65 19 18 17 40
19 234 19 118 0 219 -3 225 -7 7 -4 12 -4 12 1 0 4 188 7 418 7 378 -1 422 -3
453 -19 19 -10 36 -21 39 -24 8 -9 99 -42 160 -57 111 -28 195 -13 332 56 l83
42 130 -1 c72 -1 139 -1 150 -1 11 0 228 0 481 1 254 1 467 -1 473 -5 6 -4 11
-4 11 1 0 9 187 9 196 0 3 -3 16 -2 28 2 19 6 114 7 141 1 6 -1 12 -2 15 -1
16 6 293 5 296 -1 3 -4 15 -4 27 0 19 7 115 8 142 2 6 -1 15 -1 20 0 37 7 290
-2 290 -10 0 -2 26 -7 117 -23 134 -24 214 -22 297 8 68 25 86 27 230 27 86 0
161 -1 166 -2 6 -1 12 -2 15 0 3 1 57 1 120 1 63 -1 133 -1 155 0 22 0 166 0
320 0 154 -1 298 -1 320 0 194 4 327 0 340 -11 8 -6 19 -9 25 -5 5 3 13 -1 16
-9 3 -9 10 -13 15 -10 5 3 9 -2 9 -10 0 -15 341 -16 3545 -16 l3544 0 17 38
c10 20 26 48 36 61 10 13 15 27 12 32 -3 5 0 9 5 9 6 0 11 4 11 9 0 7 26 56
63 116 7 11 27 43 45 72 17 30 32 58 32 63 0 6 5 10 12 10 6 0 8 3 5 6 -3 4 3
18 13 32 11 13 20 31 20 38 0 8 5 14 10 14 6 0 10 5 10 11 0 6 9 24 21 40 11
16 17 29 12 29 -4 0 0 5 10 11 9 6 15 14 12 20 -4 5 -1 9 5 9 6 0 8 4 5 10 -3
5 1 10 9 10 9 0 13 6 10 14 -3 7 2 20 10 29 9 9 16 20 16 26 0 6 4 11 9 11 5
0 14 13 20 30 5 16 14 30 19 30 5 0 9 6 9 13 0 6 12 31 26 55 15 23 24 42 20
42 -4 0 2 7 13 15 10 8 15 15 10 15 -5 0 -2 8 6 17 8 10 48 77 88 148 41 72
76 132 80 135 3 3 12 20 19 37 7 18 17 30 22 27 5 -3 6 1 3 9 -3 8 2 20 11 27
8 7 15 17 15 23 0 5 8 16 18 24 10 8 11 11 2 7 -8 -5 -3 8 12 28 15 19 24 38
21 42 -4 3 -1 6 6 6 7 0 10 4 7 9 -3 5 1 14 9 21 8 7 15 16 15 20 0 4 27 54
60 111 33 57 60 109 60 116 0 7 6 16 13 20 14 9 63 104 59 116 -1 4 2 7 6 7 5
0 19 23 32 50 13 28 27 50 32 50 4 0 8 8 8 19 0 10 9 30 20 43 10 14 16 28 13
32 -3 3 -1 6 6 6 7 0 9 5 6 10 -3 6 1 13 9 16 9 3 14 10 11 14 -3 5 2 15 11
24 8 9 12 20 9 26 -3 5 -3 10 2 10 4 0 14 15 22 32 8 18 18 36 23 39 5 3 10
13 12 21 1 8 8 26 17 39 8 13 23 42 34 64 11 22 24 43 28 46 5 3 8 9 8 13 -1
3 6 20 14 36 9 17 13 30 10 30 -4 0 1 7 9 16 9 8 14 20 11 25 -4 5 -1 9 5 9 6
0 15 12 21 28 15 42 73 156 82 163 5 3 8 8 7 10 -3 9 33 85 44 91 6 4 7 8 2 8
-5 0 -2 7 5 17 8 9 13 17 12 17 -7 3 11 46 18 46 5 0 8 4 7 8 -2 4 7 28 19 52
40 84 78 165 78 170 1 3 11 24 23 48 13 23 20 47 17 52 -3 6 -2 10 3 10 10 0
33 45 39 74 2 11 7 24 11 30 5 6 21 43 36 81 15 39 37 88 49 110 12 22 20 40
18 40 -2 0 5 20 15 45 10 25 18 48 16 53 -1 4 3 7 9 7 5 0 8 4 5 8 -3 5 3 25
14 44 10 20 16 39 13 42 -4 3 0 6 7 6 7 0 10 3 7 6 -3 4 -1 16 5 28 7 11 13
26 14 31 1 6 9 26 18 46 8 20 12 39 9 43 -4 3 -1 6 6 6 7 0 9 5 6 10 -3 6 -1
10 5 10 6 0 9 4 5 9 -3 5 -1 12 5 16 5 3 10 13 10 21 0 8 6 29 13 47 8 18 14
34 14 37 0 3 8 22 17 44 9 21 16 47 16 57 0 11 5 19 10 19 6 0 10 6 10 14 0 8
5 27 12 43 13 32 12 28 22 70 4 18 11 33 15 33 4 0 7 8 8 18 1 9 11 44 22 77
11 32 17 63 15 67 -3 4 -1 8 5 8 9 0 46 107 43 123 -1 4 3 7 9 7 6 0 9 8 6 18
-2 9 3 29 10 45 7 15 11 27 8 27 -3 0 1 10 9 22 8 13 16 34 18 48 2 14 9 35
16 48 7 12 11 22 8 22 -3 0 1 15 9 34 8 18 11 36 8 40 -4 3 -2 6 4 6 9 0 13
13 14 52 0 10 4 18 10 18 5 0 8 3 8 8 -1 4 0 9 1 12 5 15 11 47 11 63 0 9 4
17 10 17 5 0 8 3 7 8 -2 12 14 67 23 72 4 3 10 21 13 41 3 20 11 49 17 65 7
16 13 34 14 39 1 6 3 13 5 18 1 4 3 10 4 15 14 58 31 112 38 112 4 0 5 6 3 13
-3 6 15 77 40 156 24 80 42 148 39 153 -3 4 -1 8 3 8 5 0 14 26 22 58 7 31 18
60 25 64 8 5 7 8 -3 8 -11 0 -11 3 -1 15 6 8 9 19 5 25 -3 5 -2 10 3 10 5 0 9
6 10 13 1 17 21 99 29 117 3 8 7 24 9 35 6 47 13 74 22 92 5 10 8 26 7 36 -2
9 1 17 7 17 6 0 8 9 5 20 -3 11 -1 20 5 20 5 0 6 5 2 12 -4 6 1 17 11 25 11 7
14 13 7 13 -8 0 -9 7 -2 25 5 14 7 25 4 25 -4 0 -2 6 3 12 6 7 9 21 8 31 -2 9
1 17 6 17 5 0 8 10 8 23 0 19 7 62 11 62 1 0 3 8 5 19 2 10 9 39 15 65 6 25
13 57 16 71 8 38 12 55 14 55 1 0 3 14 6 30 8 55 10 64 16 71 4 3 4 12 2 19
-3 7 -1 16 5 19 5 4 8 18 5 31 -2 14 0 25 5 25 6 0 8 7 5 15 -3 8 -2 19 2 26
4 7 9 30 11 53 2 23 7 42 12 44 4 1 6 14 3 27 -2 14 0 25 5 25 6 0 8 11 5 25
-2 14 0 25 5 25 6 0 10 12 11 28 0 36 8 93 15 112 10 25 27 141 30 197 1 29 4
53 7 53 3 0 6 17 6 38 1 20 4 53 7 72 3 19 9 77 13 128 4 51 11 95 16 98 4 3
5 11 1 17 -11 18 -12 37 -2 37 6 0 6 8 -1 19 -6 12 -6 22 -1 25 5 3 7 15 4 26
-3 11 -1 20 4 20 6 0 7 15 3 40 -4 22 -5 42 -2 44 3 3 5 35 4 71 0 43 3 65 11
65 8 0 8 3 2 8 -15 11 -17 32 -4 48 6 8 7 14 2 14 -5 0 -9 9 -10 20 -1 11 3
20 8 20 6 0 6 6 0 18 -6 11 -6 24 1 37 8 13 8 20 1 22 -7 3 -8 15 -3 36 5 18
8 221 6 452 -1 231 2 428 6 437 5 9 4 19 0 22 -5 3 -6 20 -4 38 2 18 5 105 6
194 1 88 5 164 8 170 3 5 7 41 8 79 2 91 4 118 12 130 4 6 4 16 0 22 -4 7 -6
29 -4 50 2 21 5 67 8 103 9 110 14 163 19 210 3 25 7 63 9 86 1 23 6 46 10 53
4 6 1 11 -6 11 -10 0 -10 2 1 9 9 6 11 18 7 35 -3 14 -2 26 3 26 4 0 7 18 6
40 -1 22 1 40 4 40 4 0 7 25 6 55 0 30 2 55 5 55 4 0 6 24 5 52 -1 29 0 58 4
63 8 14 11 111 12 440 1 299 -2 393 -12 410 -3 6 -5 29 -5 53 1 23 -1 42 -4
42 -3 0 -5 19 -4 43 0 23 -2 46 -5 52 -9 17 -8 45 1 45 5 0 3 7 -5 15 -10 9
-14 26 -11 45 3 16 2 30 -3 30 -7 0 -10 25 -13 114 -1 16 -5 37 -10 46 -6 11
-5 21 2 28 7 7 8 12 2 12 -5 0 -11 10 -11 23 -3 53 -13 130 -17 135 -3 2 -1
13 5 23 7 13 6 19 -1 19 -6 0 -8 5 -5 10 3 6 3 15 -1 22 -4 7 -6 33 -5 60 1
26 -1 52 -4 58 -4 6 -8 39 -10 73 -2 34 -6 75 -10 90 -4 22 -3 27 7 21 10 -6
10 -4 3 7 -6 8 -10 30 -9 49 1 19 -2 40 -8 47 -7 9 -7 17 2 28 7 8 8 15 3 15
-5 0 -9 9 -10 20 -1 11 3 20 8 20 6 0 7 5 4 10 -10 17 -15 94 -14 241 0 74 -5
147 -10 162 -6 16 -7 29 -1 32 5 3 6 13 3 23 -4 9 -6 30 -5 47 5 112 5 135 0
140 -3 4 -2 19 2 35 4 16 6 30 4 33 -9 8 -10 78 -2 83 4 3 3 14 -2 25 -8 13
-7 19 0 19 7 0 8 6 1 19 -6 10 -8 20 -6 23 8 8 13 68 6 68 -3 0 -5 17 -2 37 2
21 5 103 8 183 3 98 8 147 16 152 7 4 7 8 2 8 -6 0 -11 9 -12 20 -1 11 2 18 7
15 5 -3 5 9 -1 27 -6 23 -5 34 4 40 8 5 9 11 2 16 -9 6 -12 107 -4 107 7 0 5
544 -3 564 -6 17 -5 27 4 33 11 6 10 10 0 17 -17 11 -17 21 0 32 7 5 8 9 2 9
-6 0 -11 32 -11 85 -1 52 -6 91 -13 100 -9 11 -9 15 -1 15 8 0 9 5 3 16 -5 9
-7 25 -5 35 3 11 1 19 -3 19 -5 0 -8 20 -6 45 2 25 0 45 -6 45 -5 0 -8 16 -5
35 2 19 0 35 -4 35 -5 0 -7 18 -7 40 1 22 -2 43 -7 46 -5 3 -7 9 -4 15 3 5 1
35 -4 66 -6 32 -13 74 -15 95 -2 20 -9 45 -15 55 -7 14 -7 23 1 31 9 9 9 12 0
12 -7 0 -12 9 -12 21 0 11 -7 45 -16 75 -9 31 -13 61 -10 69 2 7 1 15 -5 17
-5 2 -11 19 -14 38 -2 19 -9 50 -15 69 -5 19 -7 38 -4 42 3 5 1 9 -4 9 -9 0
-27 37 -39 80 -8 29 -11 90 -4 90 4 0 7 17 7 38 1 41 19 157 24 157 1 0 7 42
12 93 1 12 5 22 8 22 4 0 6 14 5 30 -1 17 1 30 4 30 4 0 7 8 8 17 1 10 9 50
18 88 9 39 19 81 21 95 3 13 8 27 12 30 4 3 8 16 10 30 2 14 9 45 16 70 7 25
12 53 10 63 -1 9 1 17 6 17 4 0 10 10 13 23 3 12 14 57 26 101 11 43 18 82 15
87 -3 5 -1 9 4 9 5 0 13 19 17 43 4 23 9 47 11 52 4 13 25 95 29 116 2 9 8 34
14 55 6 21 8 40 6 43 -3 2 0 10 6 17 6 8 9 20 6 29 -4 8 -2 17 3 20 4 3 7 13
5 23 -1 9 2 22 7 29 5 7 7 17 4 22 -4 5 -2 12 4 16 6 4 8 11 5 16 -4 5 -3 15
2 22 9 14 15 43 17 75 1 12 3 22 6 22 3 0 6 10 7 22 1 11 8 25 15 29 11 7 11
9 0 9 -7 0 -10 5 -7 10 4 6 9 22 11 37 3 15 9 32 14 38 5 6 11 27 13 46 2 20
7 41 11 48 4 6 10 24 12 39 3 15 9 28 14 30 4 2 6 11 3 21 -3 10 0 22 6 25 6
4 11 18 11 32 0 13 4 24 10 24 5 0 7 7 4 15 -4 8 -1 15 5 15 6 0 8 7 5 15 -4
8 -2 15 3 15 5 0 10 12 11 27 1 15 8 30 15 35 6 4 9 8 5 8 -4 0 2 26 13 58 11
31 22 62 23 67 2 6 6 19 10 30 5 11 12 31 16 45 4 14 12 34 16 45 10 28 9 25
24 77 8 27 17 48 21 48 3 0 9 12 12 28 3 15 11 41 18 57 7 17 13 35 15 42 1 7
9 25 16 41 8 16 14 36 12 45 -1 9 2 17 7 17 6 0 8 4 5 8 -3 5 1 20 9 35 8 15
12 27 9 27 -2 0 2 10 11 23 8 13 12 26 9 30 -3 3 -2 12 2 19 9 15 15 35 17 61
1 9 6 17 11 17 5 0 6 3 3 6 -3 4 -1 16 5 28 7 11 13 37 15 56 2 19 8 39 13 45
6 7 7 15 3 18 -3 4 0 13 7 22 7 8 10 15 6 15 -3 0 -1 11 4 25 7 18 6 25 -3 25
-9 0 -9 2 0 8 7 4 15 23 18 42 2 19 7 49 11 65 3 17 6 37 6 45 0 8 2 22 5 30
5 14 14 96 15 130 1 8 5 20 10 27 6 7 5 14 -2 18 -7 5 -8 11 -1 19 6 7 6 17 1
26 -5 8 -5 21 -1 29 15 30 23 295 30 1033 2 183 2 186 24 192 20 5 22 11 20
63 -2 76 -1 74 -15 72 -26 -3 -39 1 -33 11 7 12 -74 100 -92 100 -7 0 -13 6
-13 13 0 7 -10 17 -22 22 -13 6 -22 17 -20 24 1 7 -1 10 -6 7 -5 -3 -19 4 -31
15 -12 11 -50 44 -84 72 -34 28 -74 63 -89 78 -14 15 -28 26 -30 24 -2 -2 -32
23 -68 55 -36 33 -71 60 -77 60 -7 0 -13 5 -13 10 0 6 -11 16 -25 22 -14 6
-25 17 -25 25 0 7 -6 13 -14 13 -8 0 -24 12 -35 26 -12 15 -21 24 -21 20 0 -6
-176 128 -190 144 -3 3 -22 16 -42 29 -21 12 -38 28 -38 33 0 6 -3 8 -7 5 -3
-4 -16 1 -27 12 -34 30 -172 121 -185 121 -7 0 -9 5 -6 10 3 6 -2 10 -12 10
-10 0 -29 9 -43 20 -14 11 -30 20 -36 20 -6 0 -33 22 -60 49 -51 50 -58 59
-85 101 -19 29 -33 110 -20 110 5 0 14 14 20 32 6 17 22 45 35 62 13 17 26 41
30 54 4 12 12 22 17 22 6 0 8 4 4 9 -3 5 -1 12 5 16 6 4 8 11 5 16 -4 5 -1 9
4 9 6 0 10 3 9 8 -3 14 22 62 32 62 6 0 9 4 6 9 -3 5 0 14 7 20 8 6 20 29 27
51 7 22 19 45 27 51 7 6 13 18 13 26 0 8 13 39 29 68 16 29 27 56 24 59 -4 3
-1 6 5 6 6 0 16 18 22 40 6 22 15 40 20 40 6 0 9 3 8 8 -3 14 15 67 25 74 6 3
12 16 14 29 2 12 8 28 13 34 5 7 7 15 3 18 -3 4 -1 7 6 7 8 0 11 7 7 15 -3 8
-1 15 4 15 6 0 10 6 10 13 0 8 11 34 23 60 13 25 20 44 15 41 -5 -3 1 11 12
30 11 20 19 37 19 39 -3 10 15 57 22 57 5 0 6 7 3 15 -4 8 -1 15 6 15 6 0 8 4
5 10 -3 5 0 20 7 32 6 13 13 32 15 43 2 10 7 22 12 25 4 3 8 12 9 20 2 32 7
55 13 60 4 3 24 59 44 125 21 66 42 122 47 123 5 2 4 10 -3 18 -9 11 -9 14 1
14 7 0 10 6 7 14 -3 7 -2 17 3 22 5 5 11 23 13 39 3 17 13 52 22 78 9 27 14
51 11 55 -3 3 -1 11 5 19 7 7 13 23 15 36 4 25 23 105 31 127 5 13 11 49 14
90 1 8 5 20 10 25 4 6 6 20 5 30 -2 11 1 26 6 32 6 7 8 19 5 28 -4 8 -2 17 3
20 5 3 9 13 9 23 0 20 7 74 16 117 3 17 7 41 9 55 2 14 5 25 6 25 4 0 20 146
35 330 9 108 12 359 4 370 -4 6 -7 37 -8 70 -2 102 -6 135 -14 135 -5 0 -6 13
-3 30 2 16 0 32 -4 35 -5 3 -7 14 -5 25 2 11 0 20 -5 20 -5 0 -7 7 -4 15 4 8
2 21 -4 28 -5 6 -10 19 -10 27 -1 24 -8 49 -14 56 -4 3 -4 12 -1 20 3 8 0 14
-6 14 -6 0 -8 7 -5 15 4 8 1 15 -5 15 -6 0 -10 3 -9 8 4 17 -15 82 -24 82 -5
0 -7 4 -3 9 3 5 1 12 -5 16 -6 4 -8 11 -5 16 4 5 3 15 -2 22 -4 6 -8 18 -10
26 -1 8 -5 17 -10 20 -9 7 -53 94 -53 105 0 4 -7 14 -15 23 -8 8 -13 19 -10
24 4 5 0 9 -8 9 -8 0 -18 11 -21 25 -4 14 -11 25 -16 25 -6 0 -10 5 -10 10 0
14 -8 24 -100 122 -99 107 -92 100 -129 128 -18 13 -43 33 -56 45 -39 34 -59
50 -97 74 -21 12 -38 27 -38 32 0 6 -4 7 -10 4 -5 -3 -10 -1 -10 4 0 6 -6 11
-13 11 -7 0 -22 8 -33 18 -11 9 -36 25 -55 36 -19 10 -58 31 -88 47 -30 16
-60 34 -68 40 -7 6 -13 9 -13 5 0 -4 -12 1 -27 11 -14 9 -32 18 -40 19 -8 2
-23 10 -34 20 -10 9 -19 14 -19 10 0 -4 -13 2 -29 13 -16 12 -35 21 -43 21 -7
0 -24 9 -38 20 -14 11 -30 20 -37 20 -7 0 -40 13 -75 29 -80 37 -112 50 -223
96 -49 20 -101 42 -115 48 -14 6 -27 11 -30 12 -16 6 -49 19 -75 30 -16 8 -33
11 -37 9 -4 -3 -8 -1 -8 3 0 5 -17 15 -37 22 -21 7 -47 16 -58 21 -26 11 -49
18 -55 17 -3 -1 -18 6 -35 15 -66 36 -147 68 -156 63 -5 -4 -9 -1 -9 4 0 6 -9
11 -19 11 -11 0 -22 4 -25 9 -3 5 -18 12 -33 16 -28 6 -82 28 -115 46 -10 5
-25 9 -33 9 -8 0 -15 4 -15 10 0 5 -3 9 -7 8 -9 -1 -28 5 -88 30 -21 10 -41
16 -42 14 -2 -1 -25 10 -53 24 -27 14 -55 27 -62 28 -19 4 -70 24 -90 36 -10
6 -25 10 -33 10 -8 0 -15 5 -15 11 0 6 -9 9 -20 6 -11 -3 -20 -1 -20 3 0 8
-48 29 -79 36 -8 1 -18 9 -22 16 -7 10 -9 10 -9 -2 0 -9 -3 -11 -8 -4 -4 5
-23 16 -42 23 -19 7 -53 21 -75 31 -22 9 -58 23 -80 31 -22 7 -48 20 -57 28
-10 8 -18 11 -18 7 0 -3 -15 1 -32 11 -18 9 -37 16 -42 15 -4 -2 -15 3 -23 10
-8 6 -24 14 -36 15 -12 2 -24 8 -28 14 -3 6 -10 10 -15 9 -15 -2 -94 31 -94
40 0 4 -9 6 -20 3 -11 -3 -20 -1 -20 5 0 9 -20 18 -59 27 -8 2 -17 7 -20 12
-3 4 -17 10 -31 11 -14 2 -26 8 -28 13 -2 5 -7 9 -12 9 -4 0 -25 8 -46 17 -22
9 -41 18 -44 19 -35 12 -70 30 -70 36 0 4 -7 5 -15 2 -8 -4 -15 -1 -15 6 0 6
-4 8 -10 5 -5 -3 -10 -1 -10 5 0 6 -4 8 -10 5 -5 -3 -10 -1 -10 6 0 7 -3 9 -6
6 -4 -4 -20 3 -35 14 -16 11 -29 17 -29 13 0 -4 -9 1 -20 11 -11 10 -23 15
-26 12 -4 -4 -21 4 -38 16 -17 12 -31 20 -31 19 0 -2 -43 16 -95 41 -249 118
-314 147 -326 147 -8 0 -14 5 -14 10 0 6 -5 10 -10 10 -6 0 -50 18 -98 41 -48
22 -121 55 -162 72 -41 17 -76 35 -78 39 -2 4 -12 8 -21 8 -10 0 -31 10 -47
22 -15 13 -24 16 -19 8 5 -8 -5 -4 -22 8 -17 12 -35 22 -40 22 -5 0 -34 12
-64 26 -30 15 -60 27 -66 27 -7 0 -13 4 -13 9 0 5 -4 7 -9 3 -5 -3 -16 4 -24
15 -7 11 -16 17 -20 14 -3 -3 -18 1 -34 9 -15 8 -41 21 -58 28 -16 8 -33 18
-37 24 -4 5 -8 7 -8 2 0 -7 -120 50 -130 62 -3 3 -12 7 -20 9 -8 1 -58 24
-110 50 -52 26 -97 47 -100 47 -3 0 -24 13 -47 28 -24 15 -49 27 -58 27 -8 0
-15 3 -15 8 0 8 -49 32 -67 32 -7 0 -13 4 -13 8 0 8 -80 52 -95 52 -4 0 -16
10 -26 22 -11 11 -19 18 -19 14 0 -4 -20 5 -45 19 -25 14 -66 37 -92 52 -27
14 -51 31 -55 37 -5 6 -8 7 -8 1 0 -7 -3 -7 -8 0 -4 6 -24 19 -44 30 -21 11
-38 23 -38 28 0 4 -5 5 -10 2 -5 -3 -10 -1 -10 4 0 6 -5 11 -10 11 -12 0 -134
81 -138 92 -2 5 -8 8 -13 8 -11 0 -72 42 -77 53 -2 4 -8 7 -14 7 -6 0 -23 10
-38 23 -15 12 -37 29 -50 37 -12 8 -28 20 -34 25 -6 6 -27 22 -48 37 -20 15
-43 35 -52 44 -9 8 -16 13 -16 10 0 -3 -11 5 -24 17 -13 12 -37 34 -54 49 -17
14 -28 29 -25 32 4 3 0 6 -9 6 -8 0 -76 61 -151 135 -74 74 -133 135 -131 135
3 0 -8 15 -25 33 -49 52 -79 87 -118 139 -21 26 -41 48 -45 48 -4 0 -8 5 -8
11 0 6 -7 17 -15 26 -8 8 -13 18 -10 23 3 5 -4 11 -15 15 -11 3 -20 13 -20 21
0 8 -3 14 -7 14 -5 0 -19 18 -33 40 -13 22 -28 40 -32 40 -4 0 -8 5 -8 10 0 6
-9 20 -20 32 -11 12 -26 34 -32 50 -7 15 -16 28 -20 28 -5 0 -8 7 -8 15 0 8
-4 15 -10 15 -5 0 -10 7 -10 15 0 8 -7 15 -16 15 -8 0 -13 4 -9 10 3 5 -1 17
-10 27 -26 29 -85 122 -85 133 0 5 -4 10 -10 10 -5 0 -10 6 -10 13 0 7 -9 19
-20 27 -11 8 -20 20 -20 27 0 7 -22 46 -50 87 -27 41 -50 77 -50 80 0 8 -63
100 -73 107 -5 3 -8 8 -6 10 1 2 -8 25 -20 51 -11 26 -21 53 -21 61 0 7 -3 17
-7 21 -7 6 -11 24 -15 59 -1 9 -6 17 -11 17 -5 0 -5 9 -2 20 4 11 2 20 -4 20
-6 0 -8 7 -5 15 4 8 1 21 -5 29 -6 7 -9 15 -6 17 2 3 -1 23 -7 45 -6 21 -11
44 -10 51 2 6 -2 14 -7 17 -5 3 -7 15 -4 26 3 12 0 20 -7 20 -9 0 -10 3 -1 14
9 10 8 15 -4 19 -8 4 -12 12 -10 20 3 7 -1 31 -9 54 -8 23 -12 44 -9 47 3 3 0
13 -8 23 -9 10 -9 14 -2 10 9 -6 8 3 -2 27 -8 20 -15 46 -15 59 0 13 -3 27 -7
31 -4 3 -8 14 -9 24 -7 43 -16 88 -21 96 -4 5 -8 25 -10 45 -6 46 -9 63 -16
81 -13 35 -36 144 -32 151 3 4 1 9 -4 11 -6 1 -12 19 -14 38 -2 19 -7 42 -11
50 -3 8 -7 26 -8 40 -2 14 -6 27 -9 30 -4 3 -9 21 -12 40 -3 19 -10 52 -15 72
-5 20 -7 39 -4 42 3 4 0 6 -7 6 -7 0 -11 6 -8 13 2 6 -2 26 -8 42 -7 17 -10
36 -8 43 3 6 -1 12 -8 12 -7 0 -10 3 -6 6 3 4 0 22 -8 40 -8 19 -11 34 -7 34
3 0 1 5 -5 11 -6 6 -9 18 -6 25 3 8 0 14 -7 14 -6 0 -8 5 -5 10 4 6 1 17 -5
25 -7 8 -10 15 -8 15 3 0 -6 30 -19 68 -13 37 -29 83 -34 102 -6 19 -15 46
-22 59 -6 13 -12 29 -12 35 -1 13 -12 43 -25 67 -5 9 -14 35 -20 58 -6 22 -15
41 -21 41 -6 0 -8 4 -5 8 5 8 -18 85 -32 106 -4 6 -7 13 -8 16 0 3 -4 13 -7
23 -17 44 -20 53 -22 62 0 6 -6 23 -13 38 -7 16 -12 31 -12 34 0 3 -6 19 -14
36 -29 67 -45 115 -39 121 4 3 2 6 -4 6 -9 0 -28 54 -24 72 0 4 -3 18 -8 30
-5 13 -9 25 -9 28 0 3 -6 19 -12 35 -7 17 -14 46 -17 65 -3 19 -8 37 -12 40
-3 3 -7 10 -8 16 -7 39 -12 64 -21 102 -5 23 -8 42 -5 42 3 0 0 6 -6 14 -9 11
-9 15 1 19 9 4 10 6 1 6 -7 1 -10 8 -7 16 4 8 2 15 -4 15 -6 0 -8 13 -6 30 3
17 1 30 -4 30 -8 0 -9 12 -12 108 -1 23 -4 42 -8 42 -4 0 -7 26 -8 58 -2 84
-17 251 -29 317 -3 17 -7 39 -9 50 -2 11 -4 20 -6 20 -1 0 -3 11 -5 25 -8 65
-15 100 -33 157 -11 34 -17 64 -15 67 3 3 1 11 -3 18 -5 7 -9 15 -10 18 0 3
-3 12 -6 20 -3 8 -16 44 -28 80 -24 74 -36 102 -58 145 -9 17 -15 31 -14 32 3
5 -9 37 -24 66 -8 15 -12 32 -9 37 3 6 3 10 -2 10 -4 0 -19 25 -33 55 -14 30
-28 55 -32 55 -5 0 -8 9 -8 20 0 10 -8 24 -17 29 -10 6 -15 11 -11 11 8 0 -6
27 -45 87 -15 24 -27 45 -27 48 0 6 -13 23 -42 55 -9 10 -14 21 -11 24 4 3 1
6 -5 6 -7 0 -12 5 -12 11 0 11 -32 55 -65 90 -8 9 -15 21 -15 27 0 7 -9 17
-20 24 -11 7 -20 18 -20 25 0 7 -9 17 -21 23 -12 7 -18 18 -15 26 3 9 1 12 -4
9 -6 -3 -10 -2 -10 4 0 5 -14 22 -30 38 -17 15 -30 32 -30 36 0 5 -13 22 -30
37 -16 15 -30 31 -30 34 0 4 -10 17 -22 30 -13 13 -43 47 -68 76 -25 28 -67
74 -94 101 -27 27 -46 49 -42 49 7 0 -36 44 -395 408 -138 138 -252 252 -255
252 -3 0 -23 17 -45 38 -56 51 -109 99 -170 152 -29 25 -68 61 -87 80 -20 19
-32 28 -27 20 8 -14 -33 22 -111 98 -19 17 -36 32 -40 32 -6 0 -23 15 -119
108 -19 17 -37 32 -40 32 -4 0 -24 17 -45 38 -22 20 -51 46 -65 57 -54 42 -64
52 -57 59 4 4 2 6 -3 5 -13 -4 -66 30 -83 53 -7 10 -19 18 -25 18 -7 0 -20 8
-28 18 -25 27 -59 53 -59 44 0 -4 -5 1 -11 11 -5 9 -17 17 -24 17 -8 0 -15 5
-15 10 0 6 -7 10 -16 10 -8 0 -12 5 -9 10 3 6 0 10 -8 10 -8 0 -20 7 -27 15
-7 8 -16 13 -20 10 -5 -3 -10 -1 -12 4 -1 5 -75 57 -163 115 -88 57 -167 111
-175 118 -8 7 -17 13 -20 12 -12 -2 -40 9 -40 16 0 4 -13 13 -30 20 -16 7 -30
17 -30 22 0 5 -4 7 -8 4 -5 -3 -18 3 -29 14 -12 10 -24 16 -27 13 -3 -4 -6 -1
-6 5 0 7 -8 12 -18 12 -10 0 -28 9 -40 20 -12 11 -26 20 -32 20 -11 0 -51 21
-60 31 -3 3 -55 30 -117 61 -62 31 -109 59 -105 63 4 5 2 5 -4 2 -6 -3 -23 1
-38 9 -16 7 -34 14 -41 14 -7 0 -15 4 -17 8 -3 9 -195 90 -245 104 -18 5 -33
13 -33 19 0 6 -4 8 -9 4 -6 -3 -36 4 -67 15 -32 11 -60 18 -62 15 -3 -3 -10 0
-17 5 -7 5 -27 12 -46 14 -19 3 -36 5 -39 7 -3 1 -8 1 -12 0 -5 0 -8 3 -8 7 0
4 -20 7 -45 7 -25 -1 -45 2 -45 5 0 4 -16 6 -36 5 -19 -1 -37 2 -40 6 -2 4
-23 6 -47 4 -23 -1 -46 0 -52 4 -13 7 -147 10 -160 2 -5 -3 -53 -6 -105 -8
-119 -2 -235 -14 -235 -24 0 -2 -54 -9 -87 -10 -16 -1 -28 -5 -28 -9 0 -4 -16
-6 -35 -3 -19 2 -35 -1 -35 -6 0 -6 -7 -8 -15 -5 -8 3 -20 2 -27 -2 -7 -5 -24
-9 -38 -11 -45 -4 -95 -11 -100 -13 -3 -1 -23 -2 -44 -1 -22 0 -45 -4 -52 -10
-8 -7 -14 -7 -19 1 -3 6 -11 8 -16 4 -10 -6 -18 -7 -144 -19 -206 -21 -562
-22 -582 -1 -3 3 -26 6 -50 6 -25 0 -43 5 -43 11 0 7 -4 8 -12 2 -7 -5 -22 -8
-33 -7 -60 8 -153 18 -172 18 -13 1 -23 4 -23 7 0 6 -7 8 -65 13 -22 2 -47 6
-55 9 -19 7 -99 19 -122 19 -10 -1 -18 4 -18 9 0 5 -11 7 -25 5 -13 -3 -27 0
-30 5 -3 5 -16 8 -28 8 -12 0 -53 7 -92 16 -38 9 -79 18 -90 20 -11 1 -20 3
-20 4 0 3 -32 11 -62 16 -12 2 -28 7 -35 11 -7 5 -24 9 -38 10 -14 1 -25 2
-25 3 0 1 -15 4 -34 7 -19 2 -39 8 -45 12 -6 5 -21 7 -33 6 -13 0 -23 2 -23 5
0 4 -8 7 -17 8 -41 4 -135 24 -148 31 -5 3 -21 7 -35 8 -14 1 -38 5 -55 9
-124 26 -173 35 -192 35 -13 0 -23 3 -23 8 0 4 -21 8 -46 9 -25 1 -52 7 -60
14 -9 8 -14 8 -14 1 0 -7 -9 -8 -27 -2 -16 5 -62 14 -103 21 -41 6 -85 15 -98
20 -15 6 -21 5 -17 -1 4 -6 -4 -6 -21 0 -15 6 -33 9 -40 6 -7 -2 -15 -2 -19 2
-4 4 -10 7 -13 8 -4 0 -27 4 -52 8 -25 4 -55 8 -67 9 -13 1 -23 5 -23 10 0 5
-6 4 -14 -2 -10 -8 -16 -9 -21 -1 -3 5 -18 10 -33 10 -44 0 -76 5 -89 13 -7 4
-23 5 -38 3 -14 -3 -25 -1 -25 4 0 4 -16 7 -35 6 -19 -1 -35 2 -35 6 0 5 -18
7 -40 5 -22 -2 -40 0 -40 4 0 3 -15 7 -32 7 -18 1 -55 4 -83 7 -27 4 -62 7
-77 7 -16 0 -28 4 -28 8 0 4 -12 8 -27 8 -16 0 -59 3 -98 7 -38 3 -90 7 -115
9 -25 1 -50 4 -55 7 -6 3 -30 5 -55 4 -25 -2 -49 0 -55 4 -9 5 -61 9 -172 13
-24 1 -43 5 -43 8 0 3 -28 7 -62 8 -149 4 -204 8 -217 16 -8 5 -16 4 -22 -5
-7 -11 -9 -11 -9 -1 0 7 -5 10 -11 6 -6 -3 -15 0 -20 7 -5 8 -9 9 -9 3 0 -8
-13 -10 -37 -7 -21 2 -60 6 -88 7 -27 2 -52 4 -55 5 -3 2 -36 5 -75 7 -38 2
-95 6 -125 9 -30 2 -84 6 -120 9 -131 9 -236 17 -270 21 -19 3 -58 5 -87 5
-29 0 -54 4 -57 8 -2 4 -30 7 -60 6 -31 -2 -56 0 -56 4 0 4 -24 8 -52 8 -29 1
-81 4 -115 6 -39 2 -63 0 -63 -7 0 -5 -4 -5 -8 2 -5 8 -60 14 -162 18 -156 6
-240 23 -240 49 0 8 -18 13 -49 13 -39 1 -49 -1 -44 -13 3 -8 0 -14 -6 -14 -6
0 -11 7 -11 15 0 19 -115 22 -127 3z m11831 -20153 c32 -4 69 -11 82 -15 16
-6 24 -6 24 1 0 6 8 6 21 -2 12 -6 32 -9 45 -6 14 2 26 1 29 -2 3 -7 60 -13
128 -15 15 -1 27 -3 27 -6 0 -3 21 -5 46 -5 25 0 48 -3 51 -8 2 -4 16 -7 31
-7 36 0 108 -7 152 -14 19 -4 64 -9 100 -11 110 -9 115 -10 122 -20 5 -6 8 -5
8 3 0 7 5 10 11 6 6 -3 39 -8 73 -11 58 -4 123 -9 231 -18 28 -2 64 -6 80 -9
17 -3 68 -8 115 -10 47 -3 85 -5 85 -6 0 -2 25 -4 55 -6 30 -2 74 -5 97 -7 23
-2 45 -6 49 -10 4 -3 12 -3 18 1 15 9 76 11 76 2 0 -4 12 -8 28 -8 31 0 70 -7
92 -15 8 -4 40 -9 70 -12 30 -3 69 -7 86 -8 17 -2 37 -8 45 -13 8 -4 19 -9 26
-10 16 -3 73 -42 98 -68 41 -43 90 -118 86 -133 -1 -2 8 -12 19 -23 12 -12 18
-25 15 -29 -2 -5 2 -12 11 -15 8 -3 13 -10 10 -14 -3 -5 5 -31 18 -58 13 -27
22 -57 20 -67 -1 -9 1 -17 6 -17 8 0 24 -75 21 -102 -1 -10 3 -18 9 -18 7 0
10 -7 7 -15 -4 -8 -2 -17 3 -20 4 -3 7 -13 5 -23 -1 -9 1 -22 6 -27 4 -6 6
-20 5 -30 -2 -11 -1 -24 2 -30 3 -5 7 -23 9 -40 7 -64 10 -90 12 -90 2 0 5
-19 14 -100 3 -22 6 -42 7 -45 1 -3 3 -18 4 -35 2 -16 4 -32 5 -35 1 -3 4 -27
6 -55 2 -27 6 -70 10 -95 4 -25 7 -53 7 -62 -1 -10 3 -18 7 -18 4 0 6 -17 4
-37 -1 -21 0 -45 4 -53 10 -23 11 -50 1 -50 -5 0 -2 -13 6 -29 9 -16 13 -31
10 -34 -6 -6 18 -210 25 -217 6 -5 8 -28 12 -132 1 -27 6 -48 10 -48 5 0 4
-11 -1 -24 -5 -13 -6 -26 -3 -29 7 -8 41 -211 57 -342 2 -16 6 -37 9 -45 6
-14 28 -118 32 -150 1 -8 5 -22 8 -30 4 -8 8 -24 10 -35 1 -11 6 -26 10 -32 5
-7 5 -17 2 -23 -3 -5 -1 -10 5 -10 7 0 10 -7 6 -15 -3 -8 -2 -15 3 -15 5 0 11
-12 14 -27 9 -48 15 -66 36 -116 12 -27 19 -52 16 -57 -3 -4 2 -13 10 -20 8
-7 15 -19 15 -26 0 -17 19 -60 116 -269 21 -44 39 -87 40 -95 2 -8 8 -16 13
-18 6 -2 11 -11 11 -19 0 -9 9 -31 21 -49 11 -19 18 -38 14 -44 -3 -5 1 -10 9
-10 9 0 16 -8 16 -19 0 -11 4 -21 8 -23 5 -1 29 -43 52 -93 24 -49 47 -92 51
-95 8 -6 26 -49 27 -64 0 -5 5 -12 10 -15 6 -3 12 -13 14 -21 2 -8 12 -23 22
-32 10 -10 16 -18 12 -18 -4 0 5 -21 20 -47 15 -27 35 -64 46 -83 10 -19 34
-62 53 -95 19 -33 41 -74 49 -91 7 -17 25 -49 39 -71 14 -22 23 -44 20 -47 -4
-3 -1 -6 5 -6 7 0 12 -7 12 -15 0 -8 4 -15 9 -15 5 0 12 -11 15 -25 4 -14 11
-25 16 -25 6 0 10 -7 10 -15 0 -9 10 -32 23 -53 27 -42 41 -74 39 -84 -1 -5 3
-8 8 -8 6 0 10 -6 10 -14 0 -7 6 -19 13 -25 8 -6 20 -29 27 -51 7 -22 16 -40
20 -40 12 0 30 -50 23 -67 -4 -10 -2 -14 4 -10 6 4 14 0 17 -9 5 -12 2 -15
-10 -10 -11 4 -14 0 -12 -17 3 -21 0 -22 -62 -22 -60 0 -64 -2 -70 -25 -4 -14
-1 -50 6 -80 6 -30 12 -63 13 -72 1 -10 2 -29 3 -43 1 -14 5 -25 8 -25 4 0 6
-12 5 -27 -1 -16 1 -32 4 -38 3 -5 7 -19 8 -30 1 -11 5 -33 8 -50 3 -16 7 -41
9 -55 3 -14 5 -25 6 -25 1 0 3 -10 6 -23 3 -17 1 -21 -8 -16 -10 6 -10 4 0 -8
7 -9 15 -38 18 -65 3 -26 7 -61 10 -78 3 -16 5 -42 6 -57 0 -16 4 -28 8 -28 4
0 8 -10 9 -22 0 -13 1 -42 2 -65 1 -24 4 -43 8 -43 4 0 8 -19 9 -42 0 -24 3
-59 6 -78 3 -19 8 -51 10 -70 2 -19 4 -35 6 -35 1 0 4 -22 5 -50 2 -27 6 -72
8 -100 21 -225 28 -311 27 -362 -1 -24 3 -43 8 -43 4 0 7 -23 6 -50 -1 -28 2
-53 7 -55 4 -3 4 -17 -1 -30 -6 -16 -6 -25 0 -25 5 0 7 -6 4 -14 -3 -8 -1 -30
4 -49 7 -24 6 -39 -1 -46 -7 -7 -7 -11 -1 -11 13 0 12 -43 -1 -52 -6 -5 -5 -8
3 -8 10 0 13 -14 11 -47 -1 -27 1 -82 4 -123 7 -75 16 -281 22 -480 2 -58 4
-111 4 -117 0 -7 0 -28 0 -45 0 -18 0 -42 1 -53 1 -11 -1 -31 -4 -45 -8 -32
-8 -218 -1 -231 4 -5 1 -9 -5 -9 -6 0 -10 -6 -9 -12 6 -28 -13 -224 -22 -235
-7 -7 -6 -14 1 -18 6 -4 7 -12 1 -24 -5 -9 -11 -41 -13 -71 -2 -30 -6 -59 -9
-65 -4 -5 -10 -28 -14 -50 -5 -22 -10 -47 -12 -55 -2 -8 -5 -24 -7 -35 -2 -11
-6 -27 -10 -35 -3 -8 -7 -24 -9 -35 -1 -11 -6 -26 -11 -33 -4 -7 -5 -19 -2
-27 3 -8 1 -15 -5 -15 -6 0 -9 -6 -6 -14 3 -8 3 -17 -1 -21 -4 -4 -8 -11 -8
-16 -1 -5 -2 -10 -4 -11 -1 -2 -4 -16 -6 -33 -3 -16 -9 -35 -15 -41 -5 -6 -10
-23 -11 -38 -1 -14 -5 -26 -9 -26 -5 0 -9 -17 -10 -52 0 -10 -3 -18 -7 -18 -4
0 -8 -8 -9 -17 -1 -18 -10 -56 -13 -60 -2 -2 -3 -7 -4 -12 0 -5 -4 -13 -8 -17
-5 -4 -8 -20 -8 -36 0 -15 -4 -28 -9 -28 -5 0 -7 -9 -4 -20 3 -11 1 -20 -4
-20 -5 0 -10 -6 -11 -12 0 -7 -3 -24 -7 -38 -3 -14 -8 -35 -11 -47 -2 -12 -9
-35 -15 -50 -6 -16 -13 -41 -16 -58 -3 -16 -9 -38 -14 -47 -5 -9 -8 -21 -7
-25 1 -4 -3 -18 -10 -30 -7 -13 -11 -23 -8 -23 2 0 -4 -27 -14 -59 -10 -33
-15 -62 -12 -65 3 -3 1 -6 -5 -6 -6 0 -10 -10 -10 -22 0 -13 -4 -34 -10 -48
-6 -14 -16 -45 -23 -70 -7 -25 -16 -53 -21 -63 -5 -10 -7 -22 -4 -27 4 -6 2
-10 -3 -10 -9 0 -20 -38 -24 -80 0 -8 -4 -17 -8 -20 -7 -5 -38 -106 -47 -150
-2 -14 -7 -32 -10 -40 -4 -8 -7 -17 -7 -20 -1 -3 -5 -11 -10 -18 -4 -7 -5 -16
-2 -19 3 -3 2 -11 -4 -17 -8 -11 -22 -64 -23 -93 0 -7 -3 -13 -7 -13 -3 0 -6
-8 -7 -17 0 -10 -4 -29 -8 -43 -3 -14 -8 -32 -10 -40 -2 -8 -4 -15 -5 -15 -2
0 -8 -23 -26 -110 -3 -16 -9 -34 -12 -40 -4 -5 -7 -14 -8 -20 -10 -48 -13 -60
-14 -60 -2 0 -11 -54 -12 -72 -1 -7 -4 -13 -7 -13 -4 0 -8 -12 -9 -26 -1 -15
-6 -32 -10 -38 -5 -6 -8 -20 -8 -31 1 -11 -1 -22 -5 -25 -4 -4 -23 -67 -53
-175 -15 -57 -30 -104 -36 -120 -5 -11 -21 -60 -37 -110 -15 -49 -31 -92 -35
-93 -5 -2 -6 -7 -4 -11 3 -4 -6 -37 -19 -73 -13 -36 -21 -69 -18 -72 4 -3 0
-6 -7 -6 -7 0 -11 -3 -7 -6 3 -4 0 -19 -9 -35 -8 -16 -12 -29 -9 -29 4 0 3 -6
-2 -12 -4 -7 -8 -17 -9 -23 -1 -5 -9 -29 -17 -52 -9 -22 -13 -44 -10 -47 4 -3
1 -6 -5 -6 -7 0 -11 -3 -10 -7 0 -5 -2 -16 -5 -25 -4 -10 -10 -26 -14 -35 -3
-10 -5 -26 -4 -35 1 -10 -2 -18 -7 -18 -5 0 -9 -6 -9 -12 -1 -21 -7 -43 -15
-48 -4 -3 -9 -19 -12 -35 -2 -17 -5 -31 -6 -32 -2 -2 -4 -7 -5 -13 -1 -5 -3
-11 -4 -12 -2 -2 -5 -14 -7 -28 -2 -13 -10 -27 -16 -32 -7 -4 -9 -10 -6 -14 4
-3 1 -19 -7 -34 -8 -15 -11 -30 -8 -34 4 -3 2 -6 -3 -6 -5 0 -10 -14 -10 -31
-1 -17 -7 -35 -15 -40 -8 -5 -11 -9 -7 -9 4 0 1 -18 -7 -41 -8 -23 -12 -45 -9
-50 3 -5 1 -9 -4 -9 -7 0 -27 -48 -37 -90 -10 -40 -69 -208 -77 -217 -5 -7 -7
-17 -3 -23 3 -5 2 -10 -2 -10 -5 0 -15 -21 -23 -47 -7 -26 -19 -59 -27 -73 -7
-14 -13 -33 -13 -42 0 -10 -5 -18 -11 -18 -6 0 -9 -6 -6 -13 3 -7 -4 -24 -14
-38 -10 -13 -19 -31 -19 -39 0 -9 -7 -25 -15 -36 -8 -12 -11 -24 -8 -28 3 -3
1 -6 -6 -6 -7 0 -9 -4 -6 -10 3 -5 1 -10 -4 -10 -6 0 -11 -8 -11 -18 0 -10 -4
-22 -9 -27 -5 -6 -20 -30 -33 -55 -40 -74 -70 -125 -77 -130 -3 -3 -12 -17
-20 -32 -8 -15 -22 -37 -33 -47 -10 -11 -18 -23 -18 -26 0 -4 -27 -39 -60 -78
-59 -72 -120 -127 -139 -127 -6 0 -11 -6 -11 -12 0 -7 -10 -18 -23 -24 -12 -6
-41 -21 -63 -32 -39 -20 -104 -26 -104 -9 0 4 -7 7 -16 7 -8 0 -13 4 -10 9 4
5 2 11 -4 13 -10 3 -20 43 -25 108 -12 139 -15 210 -8 210 4 0 7 28 6 62 -1
34 3 68 9 75 7 9 7 13 -1 13 -8 0 -9 6 -3 18 4 9 7 35 6 57 -1 22 1 64 5 93 5
32 4 52 -2 52 -5 0 -5 6 2 13 6 8 8 17 4 20 -3 4 -1 7 6 7 8 0 9 5 3 16 -5 9
-6 32 -2 50 5 20 4 37 -2 40 -5 4 -5 10 0 17 6 7 13 64 17 127 4 63 9 129 12
145 2 17 5 49 5 73 1 23 5 45 9 48 5 2 4 16 -1 29 -5 14 -6 25 -1 25 5 0 7 9
4 20 -3 11 0 27 7 35 7 8 9 15 4 15 -5 0 -9 16 -9 35 0 19 4 35 9 35 5 0 3 6
-3 14 -9 10 -9 16 -1 21 6 4 9 13 6 21 -3 7 -1 16 4 19 5 3 6 15 1 28 -5 12
-5 31 0 42 4 11 8 59 8 108 1 48 5 87 9 87 4 0 6 17 5 38 -2 20 -3 42 -4 47
-2 32 5 91 12 100 4 6 4 17 -1 25 -5 8 -5 21 1 31 6 12 5 20 -1 24 -6 4 -8 11
-4 16 3 5 5 112 4 237 -2 261 -4 319 -13 328 -3 3 -2 16 2 28 4 11 5 35 1 51
-3 17 -3 42 1 56 4 15 3 33 -2 40 -5 8 -9 63 -8 124 1 60 -2 110 -7 112 -5 2
-8 52 -7 113 2 76 -1 110 -8 110 -8 0 -7 5 1 15 7 8 9 15 4 15 -5 0 -9 38 -8
85 0 47 -3 85 -8 85 -5 0 -4 8 1 18 5 10 6 24 2 30 -4 7 -5 33 -1 57 4 25 3
45 -1 45 -5 0 -8 58 -7 129 0 70 -2 133 -6 140 -4 6 -7 34 -6 63 2 141 -14
715 -20 727 -5 8 -4 25 1 38 4 12 4 25 0 28 -5 3 -5 22 -1 42 5 21 5 40 0 43
-4 3 -9 37 -10 75 -3 115 -16 274 -24 295 -3 8 -4 29 -3 45 2 18 -3 35 -13 42
-8 7 -10 12 -4 13 8 0 9 11 4 34 -4 19 -5 37 -3 40 3 2 1 11 -3 18 -5 7 -9 31
-11 53 -3 53 -9 87 -16 105 -4 8 -9 33 -11 55 -3 22 -8 54 -11 70 -4 17 -8 41
-10 55 -2 14 -4 26 -6 28 -1 1 -3 7 -4 12 -1 6 -4 12 -5 15 -1 3 -3 13 -4 23
-1 9 -5 23 -9 30 -5 6 -6 16 -2 21 3 5 1 12 -4 16 -6 3 -8 12 -5 19 3 8 1 17
-5 20 -6 4 -8 13 -5 20 3 8 1 17 -5 20 -6 4 -8 13 -4 21 3 8 1 15 -4 15 -5 0
-9 8 -10 18 -3 44 -8 62 -17 62 -5 0 -6 3 -3 6 3 4 1 16 -4 27 -6 11 -13 33
-16 48 -2 16 -10 41 -18 55 -7 14 -12 38 -11 54 1 16 -1 27 -5 24 -4 -2 -9 6
-12 19 -2 12 -19 60 -37 107 -18 47 -35 95 -37 108 -3 12 -10 22 -16 22 -6 0
-8 3 -4 6 3 3 -5 31 -19 61 -13 31 -24 59 -24 63 0 4 -10 29 -22 56 -12 27
-23 51 -24 54 -1 3 -5 15 -9 28 -4 12 -11 22 -16 22 -5 0 -9 7 -9 15 0 8 -16
44 -35 80 -19 36 -31 65 -28 65 4 0 -1 6 -11 13 -9 7 -18 19 -20 27 -2 15 -37
76 -54 96 -6 6 -17 24 -25 40 -8 16 -25 39 -37 52 -11 12 -18 22 -15 22 6 0
-14 24 -67 84 -21 22 -38 44 -38 47 0 11 -98 108 -103 102 -3 -2 -8 4 -12 14
-3 10 -30 36 -60 57 -30 22 -55 43 -55 48 0 4 -7 8 -15 8 -9 0 -18 7 -21 15
-4 8 -11 15 -18 15 -9 0 -29 14 -83 60 -7 6 -13 8 -13 4 0 -4 -8 0 -17 8 -10
8 -47 32 -83 53 -36 22 -66 43 -68 47 -2 4 -12 8 -23 8 -10 0 -19 5 -19 11 0
5 -4 7 -10 4 -5 -3 -10 -3 -10 2 0 4 -21 19 -47 32 -27 14 -56 32 -67 40 -10
9 -21 16 -25 15 -16 -2 -40 9 -45 22 -3 8 -15 14 -26 14 -11 0 -20 4 -20 10 0
5 -3 9 -7 8 -9 -2 -65 23 -73 32 -3 3 -27 17 -55 30 -27 14 -51 28 -53 33 -2
4 -12 7 -23 7 -10 0 -19 5 -19 11 0 5 -4 8 -9 4 -6 -3 -19 5 -30 17 -12 12
-21 19 -21 16 0 -3 -25 7 -56 23 -31 16 -61 26 -67 22 -6 -3 -7 -1 -4 4 4 6
-1 14 -11 19 -9 4 -19 8 -22 9 -3 2 -15 6 -27 10 -13 4 -23 12 -23 18 0 6 -3
8 -6 5 -4 -5 -108 44 -149 70 -5 4 -12 7 -15 7 -12 0 -145 70 -148 77 -2 4 -9
8 -16 8 -7 0 -43 16 -79 35 -37 20 -67 32 -67 28 0 -4 -4 -3 -8 3 -11 15 -89
54 -96 47 -3 -4 -6 -1 -6 5 0 10 -44 30 -46 21 0 -2 -8 4 -18 14 -10 9 -22 15
-27 12 -5 -4 -9 -1 -9 4 0 6 -7 11 -15 11 -8 0 -15 4 -15 10 0 5 -3 9 -7 8
-13 -2 -128 47 -143 62 -3 3 -12 6 -20 8 -8 2 -28 10 -45 19 -50 26 -98 49
-132 64 -18 8 -33 17 -33 21 0 5 -6 8 -13 8 -22 0 -77 30 -77 42 0 5 -7 8 -15
4 -8 -3 -15 -2 -15 2 0 4 -30 23 -67 42 -37 19 -73 40 -80 47 -7 6 -22 15 -33
18 -11 3 -20 11 -20 17 0 6 -3 8 -7 5 -3 -4 -21 4 -39 18 -18 14 -37 25 -41
25 -5 0 -18 8 -29 19 -11 10 -32 25 -46 32 -14 8 -38 24 -54 37 -16 12 -57 43
-91 68 -35 25 -63 50 -63 55 0 5 -5 9 -11 9 -7 0 -25 14 -41 30 -15 17 -31 30
-34 30 -2 0 -29 24 -59 54 -30 29 -57 51 -61 47 -4 -3 -4 -1 -1 5 4 6 -16 35
-43 64 -27 29 -47 57 -43 63 3 6 1 7 -6 3 -6 -4 -14 0 -18 11 -4 10 -14 23
-22 30 -9 7 -12 13 -8 13 4 0 -3 11 -17 25 -13 13 -27 34 -31 45 -3 11 -10 20
-14 20 -5 0 -14 14 -21 30 -7 17 -16 30 -21 30 -5 0 -9 9 -9 20 0 11 -4 20 -9
20 -5 0 -14 14 -21 30 -7 17 -16 30 -21 30 -5 0 -9 7 -9 15 0 8 -4 15 -10 15
-5 0 -9 3 -8 8 4 12 -24 72 -34 72 -5 0 -7 4 -4 9 3 4 -1 17 -9 27 -8 10 -15
27 -15 37 0 9 -4 17 -10 17 -5 0 -9 3 -8 8 3 10 -44 122 -52 122 -3 0 -7 9 -8
20 -4 42 -6 50 -12 50 -20 0 -17 220 3 248 6 8 5 12 -2 12 -7 0 -9 5 -5 12 4
6 8 23 10 37 1 14 3 26 3 26 1 0 3 35 6 79 2 43 6 80 9 83 3 3 1 16 -4 29 -6
16 -6 24 1 24 6 0 7 5 4 11 -14 22 -6 78 15 107 12 16 48 43 79 58 77 39 165
97 235 154 17 14 36 28 41 32 6 4 26 21 46 38 20 16 42 30 48 30 6 0 11 7 11
15 0 8 7 15 15 15 9 0 18 7 21 15 4 8 12 15 20 15 8 0 14 5 14 11 0 5 5 7 10
4 6 -3 10 -2 10 4 0 6 16 21 35 34 19 13 32 27 28 30 -3 4 -1 7 4 7 12 0 47
27 101 78 19 17 36 32 39 32 4 0 21 15 39 33 18 17 56 52 84 77 29 25 91 82
137 128 47 45 89 82 95 82 5 0 7 4 4 9 -7 11 47 71 64 71 6 0 8 5 5 10 -3 6
-1 10 4 10 6 0 11 4 11 10 0 5 15 25 33 44 56 61 81 91 117 140 19 26 49 63
66 81 17 19 34 40 37 47 2 7 29 45 58 83 30 39 72 96 93 128 22 31 43 57 48
57 5 0 7 4 4 8 -3 5 5 19 17 33 12 13 28 36 36 52 8 15 18 27 23 27 4 0 8 9 8
19 0 11 4 22 9 26 6 3 23 25 39 48 110 162 146 213 157 222 6 6 14 15 16 20 2
6 8 9 12 7 5 -1 6 2 2 8 -3 6 0 16 7 24 7 8 24 29 38 46 14 18 33 41 43 51 9
11 17 21 17 24 0 3 10 17 23 31 50 55 57 64 57 69 0 2 12 18 28 35 15 16 41
46 57 66 34 40 74 86 111 126 13 15 24 29 24 32 0 3 11 17 25 32 14 15 36 40
48 56 12 16 37 45 54 66 18 20 33 40 33 44 0 4 14 22 30 40 17 18 30 38 30 44
0 7 14 18 30 26 17 7 30 16 30 21 0 8 84 4 204 -8z"/>
<path d="M16670 40436 c0 -15 57 -43 67 -33 3 4 -6 12 -21 18 -14 7 -26 16
-26 21 0 4 -4 8 -10 8 -5 0 -10 -6 -10 -14z"/>
<path d="M16238 40433 c-10 -2 -18 -9 -18 -14 0 -6 8 -5 20 1 11 6 20 13 20
15 0 3 -1 4 -2 4 -2 -1 -11 -3 -20 -6z"/>
<path d="M16260 40410 c-9 -6 -10 -10 -3 -10 6 0 15 5 18 10 8 12 4 12 -15 0z"/>
</g>
</svg>
